<?xml version="1.0" encoding="utf-8"?>
<!-- Generator: Adobe Illustrator 21.1.0, SVG Export Plug-In . SVG Version: 6.00 Build 0)  -->
<svg version="1.1" id="Layer_1" xmlns="http://www.w3.org/2000/svg" xmlns:xlink="http://www.w3.org/1999/xlink" x="0px" y="0px"
	 viewBox="0 0 800 800" style="enable-background:new 0 0 800 800;" xml:space="preserve">
<style type="text/css">
	.st0{fill:#AAAAAA;fill-opacity:0.6;}
	.st1{fill:#AAAAAA;fill-opacity:0.8;}
	.st2{font-family:'MicrosoftSansSerif';}
	.st3{font-size:10px;}
	.st4{enable-background:new    ;}
	.st5{font-family:'Helvetica-Bold';}
	.st6{fill:#4285F4;fill-opacity:0.8;}
	.st7{fill:#5E97F5;}
	.st8{fill:#76A6F7;fill-opacity:0.8;}
	.st9{fill:#DB4437;fill-opacity:0.8;}
	.st10{fill:#E06055;fill-opacity:0.8;}
	.st11{fill:#E4776E;fill-opacity:0.8;}
	.st12{fill:#F4B400;fill-opacity:0.8;}
	.st13{fill:#F5BF26;fill-opacity:0.8;}
	.st14{fill:#F7C846;fill-opacity:0.8;}
	.st15{fill:#0F9D58;fill-opacity:0.8;}
	.st16{fill:#33AB71;fill-opacity:0.8;}
	.st17{fill:#51B886;fill-opacity:0.8;}
	.st18{fill:#AB47BC;fill-opacity:0.8;}
	.st19{fill:#B762C6;fill-opacity:0.8;}
	.st20{fill:#C27ACE;fill-opacity:0.8;}
	.st21{fill:#00ACC1;}
	.st22{fill:#26B8CA;fill-opacity:0.8;}
	.st23{fill:#46C3D2;fill-opacity:0.8;}
	.st24{fill:#FF7043;fill-opacity:0.8;}
	.st25{fill:#FF855F;fill-opacity:0.8;}
	.st26{fill:#FF9777;fill-opacity:0.8;}
	.st27{fill:#9E9D24;fill-opacity:0.8;}
	.st28{fill:#ACAB44;fill-opacity:0.8;}
	.st29{fill:#B8B860;fill-opacity:0.8;}
	.st30{fill:#5C6BC0;fill-opacity:0.8;}
</style>
<g>
	<path class="st0" d="M10,678.3c260,0,520-319.7,780-319.7v2.1c-260,0-520,319.7-780,319.7V678.3z"/>
	<path class="st0" d="M10,680.3c260,0,520-167.3,780-167.3v2.1c-260,0-520,167.3-780,167.3V680.3z"/>
	<path class="st0" d="M10,682.4c260,0,520,5.5,780,5.5v8.3c-260,0-520-5.5-780-5.5V682.4z"/>
	<path class="st0" d="M10,14.1c260,0,520,140,780,140v35.1c-260,0-520-140-780-140V14.1z"/>
	<path class="st0" d="M10,49.2c260,0,520,335.8,780,335.8v4.1c-260,0-520-335.8-780-335.8V49.2z"/>
	<path class="st0" d="M10,362.2c260,0,520-57.4,780-57.4v28.9c-260,0-520,57.4-780,57.4V362.2z"/>
	<path class="st0" d="M10,391.1c260,0,520,53.8,780,53.8v24.8c-260,0-520-53.8-780-53.8V391.1z"/>
	<path class="st0" d="M10,428.3c260,0,520,179.1,780,179.1v41.3c-260,0-520-179.1-780-179.1V428.3z"/>
	<path class="st0" d="M10,415.9c260,0,520,138.1,780,138.1v12.4c-260,0-520-138.1-780-138.1V415.9z"/>
	<path class="st0" d="M10,700.7c260,0,520-340.1,780-340.1v2.1c-260,0-520,340.1-780,340.1V700.7z"/>
	<path class="st0" d="M10,702.7c260,0,520-187.6,780-187.6v2.1c-260,0-520,187.6-780,187.6V702.7z"/>
	<path class="st0" d="M10,704.8c260,0,520,55.1,780,55.1v4.1c-260,0-520-55.1-780-55.1V704.8z"/>
	<path class="st0" d="M10,89.9c260,0,520,113.8,780,113.8v6.2c-260,0-520-113.8-780-113.8V89.9z"/>
	<path class="st0" d="M10,96.1c260,0,520,295.2,780,295.2v2.1c-260,0-520-295.2-780-295.2V96.1z"/>
	<path class="st0" d="M10,479.6c260,0,520-9.9,780-9.9v12.4c-260,0-520,9.9-780,9.9V479.6z"/>
	<path class="st0" d="M10,790.9c260,0,520,0,780,0v4.1c-260,0-520,0-780,0V790.9z"/>
	<path class="st0" d="M10,63.4c260,0,520,125.9,780,125.9v14.5c-260,0-520-125.9-780-125.9V63.4z"/>
	<path class="st0" d="M10,77.8c260,0,520,311.4,780,311.4v2.1c-260,0-520-311.4-780-311.4V77.8z"/>
	<path class="st0" d="M10,718.9c260,0,520-356.2,780-356.2v12.4c-260,0-520,356.2-780,356.2V718.9z"/>
	<path class="st0" d="M10,731.3c260,0,520-214.1,780-214.1v2.1c-260,0-520,214.1-780,214.1V731.3z"/>
	<path class="st0" d="M10,739.6c260,0,520-43.4,780-43.4v10.3c-260,0-520,43.4-780,43.4V739.6z"/>
	<path class="st0" d="M10,754c260,0,520,10,780,10v26.8c-260,0-520-10-780-10V754z"/>
	<path class="st0" d="M10,733.4c260,0,520-162.8,780-162.8v6.2c-260,0-520,162.8-780,162.8V733.4z"/>
	<path class="st0" d="M10,502c260,0,520-19.9,780-19.9v6.2c-260,0-520,19.9-780,19.9V502z"/>
	<path class="st0" d="M10,749.9c260,0,520-43.4,780-43.4v4.1c-260,0-520,43.4-780,43.4V749.9z"/>
	<path class="st1" d="M10,0c260,0,520,150,780,150v4.1c-260,0-520-150-780-150V0z"/>
	<path class="st0" d="M10,586c260,0,520-246,780-246v18.6c-260,0-520,246-780,246V586z"/>
	<path class="st0" d="M10,604.6c260,0,520-103.9,780-103.9v6.2c-260,0-520,103.9-780,103.9V604.6z"/>
	<path class="st0" d="M10,610.8c260,0,520,114,780,114v35.1c-260,0-520-114-780-114V610.8z"/>
	<path class="st0" d="M10,206.3c260,0,520,44.9,780,44.9v10.3c-260,0-520-44.9-780-44.9V206.3z"/>
	<path class="st0" d="M10,216.6c260,0,520,197.4,780,197.4v16.5c-260,0-520-197.4-780-197.4V216.6z"/>
	<path class="st0" d="M10,192.2c260,0,520,57,780,57v2.1c-260,0-520-57-780-57V192.2z"/>
	<path class="st0" d="M10,194.2c260,0,520,217.7,780,217.7v2.1c-260,0-520-217.7-780-217.7V194.2z"/>
	<path class="st0" d="M10,140.9c260,0,520,87.6,780,87.6v20.6c-260,0-520-87.6-780-87.6V140.9z"/>
	<path class="st0" d="M10,161.5c260,0,520,233.9,780,233.9v16.5C530,411.9,270,178,10,178V161.5z"/>
	<path class="st0" d="M10,178c260,0,520,351.3,780,351.3v4.1c-260,0-520-351.3-780-351.3V178z"/>
	<path class="st0" d="M10,259.3c260,0,520,4.2,780,4.2v41.3c-260,0-520-4.2-780-4.2V259.3z"/>
	<path class="st0" d="M10,300.6c260,0,520,134,780,134v10.3c-260,0-520-134-780-134V300.6z"/>
	<path class="st0" d="M10,331.6c260,0,520,255.2,780,255.2v20.6c-260,0-520-255.2-780-255.2V331.6z"/>
	<path class="st0" d="M10,310.9c260,0,520,222.5,780,222.5v20.6c-260,0-520-222.5-780-222.5V310.9z"/>
	<path class="st0" d="M10,108.1c260,0,520,101.7,780,101.7v18.6c-260,0-520-101.7-780-101.7V108.1z"/>
	<path class="st0" d="M10,126.7c260,0,520,266.6,780,266.6v2.1c-260,0-520-266.6-780-266.6V126.7z"/>
	<path class="st0" d="M10,128.8c260,0,520,591.9,780,591.9v2.1c-260,0-520-591.9-780-591.9V128.8z"/>
	<path class="st0" d="M10,655.9c260,0,520-149,780-149v6.2c-260,0-520,149-780,149V655.9z"/>
	<path class="st0" d="M10,662.1c260,0,520,19.7,780,19.7v6.2c-260,0-520-19.7-780-19.7V662.1z"/>
	<path class="st0" d="M10,518.2c260,0,520-184.4,780-184.4v6.2c-260,0-520,184.4-780,184.4V518.2z"/>
	<path class="st0" d="M10,524.4c260,0,520-36.1,780-36.1v12.4c-260,0-520,36.1-780,36.1V524.4z"/>
	<path class="st0" d="M10,540.9c260,0,520,107.8,780,107.8v33c-260,0-520-107.8-780-107.8V540.9z"/>
	<path class="st0" d="M10,573.9c260,0,520,148.8,780,148.8v2.1C530,724.8,270,576,10,576V573.9z"/>
	<path class="st0" d="M10,536.8c260,0,520,29.7,780,29.7v4.1c-260,0-520-29.7-780-29.7V536.8z"/>
	<path class="st0" d="M10,243.1c260,0,520,18.4,780,18.4v2.1c-260,0-520-18.4-780-18.4V243.1z"/>
	<path class="st0" d="M10,245.2c260,0,520,185.3,780,185.3v4.1c-260,0-520-185.3-780-185.3V245.2z"/>
</g>
<g>
	<text transform="matrix(1 0 0 1 16 687.9712)" class="st2 st3">Agriculture</text>
	<g class="st4">
		<text transform="matrix(1 0 0 1 669.5322 266.0342)" class="st5 st3">Government Operations</text>
	</g>
	<text transform="matrix(1 0 0 1 722.8721 455.6758)" class="st2 st3">Cybersecurity</text>
	<text transform="matrix(1 0 0 1 682.833 652.2202)" class="st2 st3">Financial Management</text>
	<text transform="matrix(1 0 0 1 16 37.2456)" class="st2 st3">Commerce</text>
	<text transform="matrix(1 0 0 1 16 419.4214)" class="st2 st3">Defense</text>
	<text transform="matrix(1 0 0 1 738.9609 556.5288)" class="st2 st3">Budgeting</text>
	<text transform="matrix(1 0 0 1 16 708.2954)" class="st2 st3">Education</text>
	<text transform="matrix(1 0 0 1 676.7295 761.333)" class="st2 st3">Justice law enforcement</text>
	<text transform="matrix(1 0 0 1 16 97.5103)" class="st2 st3">Energy</text>
	<text transform="matrix(1 0 0 1 16 489.3022)" class="st2 st3">EPA</text>
	<text transform="matrix(1 0 0 1 16 796.4351)" class="st2 st3">FBI</text>
	<text transform="matrix(1 0 0 1 16 75.1211)" class="st2 st3">General Services Admin</text>
	<text transform="matrix(1 0 0 1 16 753.3975)" class="st2 st3">HHS</text>
	<text transform="matrix(1 0 0 1 16 508.5938)" class="st2 st3">HUD</text>
	<g class="st4">
		<text transform="matrix(1 0 0 1 16 5.5649)" class="st5 st3">Interior</text>
	</g>
	<text transform="matrix(1 0 0 1 16 619.4473)" class="st2 st3">Justice</text>
	<text transform="matrix(1 0 0 1 16 223.2012)" class="st2 st3">NASA</text>
	<text transform="matrix(1 0 0 1 16 197.7148)" class="st2 st3">Nuclear</text>
	<text transform="matrix(1 0 0 1 16 165.002)" class="st2 st3">Personnel Management</text>
	<text transform="matrix(1 0 0 1 16 309.2764)" class="st2 st3">President</text>
	<text transform="matrix(1 0 0 1 16 122.9966)" class="st2 st3">State Department</text>
	<text transform="matrix(1 0 0 1 16 665.582)" class="st2 st3">Transportation</text>
	<text transform="matrix(1 0 0 1 16 550.5991)" class="st2 st3">Treasury</text>
	<text transform="matrix(1 0 0 1 16 249.7202)" class="st2 st3">VA</text>
	<rect y="678.3" class="st6" width="10" height="12.4"/>
	<rect x="790" y="150" class="st7" width="10" height="225.1"/>
	<rect x="790" y="385.1" class="st8" width="10" height="134.2"/>
	<rect x="790" y="586.8" class="st9" width="10" height="123.9"/>
	<rect y="14.1" class="st10" width="10" height="39.2"/>
	<rect y="362.2" class="st11" width="10" height="107.4"/>
	<rect x="790" y="529.3" class="st12" width="10" height="47.5"/>
	<rect y="700.7" class="st13" width="10" height="8.3"/>
	<rect x="790" y="720.7" class="st14" width="10" height="74.3"/>
	<rect y="89.9" class="st15" width="10" height="8.3"/>
	<rect y="479.6" class="st16" width="10" height="12.4"/>
	<rect y="790.9" class="st17" width="10" height="4.1"/>
	<rect y="63.4" class="st18" width="10" height="16.5"/>
	<rect y="718.9" class="st19" width="10" height="61.9"/>
	<rect y="502" class="st20" width="10" height="6.2"/>
	<rect class="st21" width="10" height="4.1"/>
	<rect y="586" class="st22" width="10" height="59.9"/>
	<rect y="206.3" class="st23" width="10" height="26.8"/>
	<rect y="192.2" class="st24" width="10" height="4.1"/>
	<rect y="140.9" class="st25" width="10" height="41.3"/>
	<rect y="259.3" class="st26" width="10" height="92.9"/>
	<rect y="108.1" class="st27" width="10" height="22.7"/>
	<rect y="655.9" class="st28" width="10" height="12.4"/>
	<rect y="518.2" class="st29" width="10" height="57.8"/>
	<rect y="243.1" class="st30" width="10" height="6.2"/>
</g>
</svg>
