<?xml version="1.0" encoding="utf-8"?>
<!-- Generator: Adobe Illustrator 21.1.0, SVG Export Plug-In . SVG Version: 6.00 Build 0)  -->
<svg version="1.1" id="Layer_1" xmlns="http://www.w3.org/2000/svg" xmlns:xlink="http://www.w3.org/1999/xlink" x="0px" y="0px"
	 viewBox="0 0 700.3 404" style="enable-background:new 0 0 700.3 404;" xml:space="preserve">
<style type="text/css">
	.st0{clip-path:url(#SVGID_2_);fill:#4096BC;}
	.st1{clip-path:url(#SVGID_8_);fill:#4096BC;}
	.st2{clip-path:url(#SVGID_16_);fill:#4096BC;}
	.st3{clip-path:url(#SVGID_30_);fill:#4096BC;}
	.st4{clip-path:url(#SVGID_34_);fill:#4096BC;}
	.st5{clip-path:url(#SVGID_54_);fill:#4096BC;}
	.st6{clip-path:url(#SVGID_68_);fill:#4096BC;}
	.st7{clip-path:url(#SVGID_78_);fill:#4096BC;}
	.st8{clip-path:url(#SVGID_80_);fill:#4096BC;}
	.st9{clip-path:url(#SVGID_82_);fill:#4096BC;}
	.st10{clip-path:url(#SVGID_84_);fill:#4096BC;}
	.st11{clip-path:url(#SVGID_86_);fill:#4096BC;}
	.st12{clip-path:url(#SVGID_88_);fill:#4096BC;}
	.st13{clip-path:url(#SVGID_90_);fill:#4096BC;}
	.st14{clip-path:url(#SVGID_92_);fill:#4096BC;}
	.st15{clip-path:url(#SVGID_94_);fill:#4096BC;}
	.st16{clip-path:url(#SVGID_96_);fill:#4096BC;}
	.st17{clip-path:url(#SVGID_98_);fill:#4096BC;}
	.st18{clip-path:url(#SVGID_100_);fill:#4096BC;}
	.st19{clip-path:url(#SVGID_102_);fill:#4096BC;}
	.st20{clip-path:url(#SVGID_104_);fill:#4096BC;}
	.st21{clip-path:url(#SVGID_106_);fill:#4096BC;}
	.st22{clip-path:url(#SVGID_108_);fill:#4096BC;}
	.st23{clip-path:url(#SVGID_110_);fill:#4096BC;}
	.st24{clip-path:url(#SVGID_112_);fill:#4096BC;}
	.st25{clip-path:url(#SVGID_114_);fill:#4096BC;}
	.st26{clip-path:url(#SVGID_116_);fill:#4096BC;}
	.st27{stroke:#000000;stroke-width:0.8;stroke-linejoin:round;}
	.st28{fill:none;stroke:#000000;stroke-width:0.8;stroke-linecap:square;}
	.st29{fill:#636363;stroke:#FFFFFF;stroke-width:40;stroke-miterlimit:10;}
	.st30{stroke:#000000;stroke-width:0.75;}
	.st31{font-family:'SourceSansPro-ExtraLight';}
	.st32{font-size:9px;}
	.st33{font-family:'SourceSansPro-Bold';}
	.st34{font-size:22px;}
	.st35{font-size:13px;}
</style>
<g id="axes_1">
	<g id="patch_3">
		<g>
			<defs>
				<polyline id="SVGID_1_" points="-327.6,387.9 -327.6,166.4 488.9,142.6 488.1,378.5 				"/>
			</defs>
			<clipPath id="SVGID_2_">
				<use xlink:href="#SVGID_1_"  style="overflow:visible;"/>
			</clipPath>
			<path class="st0" d="M-323.8,371.6v16.2"/>
		</g>
	</g>
	<g id="patch_4">
		<g>
			<defs>
				<polyline id="SVGID_3_" points="-327.6,387.9 -327.6,166.4 488.9,142.6 488.1,378.5 				"/>
			</defs>
			<clipPath id="SVGID_4_">
				<use xlink:href="#SVGID_3_"  style="overflow:visible;"/>
			</clipPath>
		</g>
	</g>
	<g id="patch_5">
		<g>
			<defs>
				<polyline id="SVGID_5_" points="-327.6,387.9 -327.6,166.4 488.9,142.6 488.1,378.5 				"/>
			</defs>
			<clipPath id="SVGID_6_">
				<use xlink:href="#SVGID_5_"  style="overflow:visible;"/>
			</clipPath>
		</g>
	</g>
	<g id="patch_6">
		<g>
			<defs>
				<polyline id="SVGID_7_" points="-327.6,387.9 -327.6,166.4 488.9,142.6 488.1,378.5 				"/>
			</defs>
			<clipPath id="SVGID_8_">
				<use xlink:href="#SVGID_7_"  style="overflow:visible;"/>
			</clipPath>
			<path class="st1" d="M-269.8,355.4h-7.7"/>
		</g>
	</g>
	<g id="patch_7">
		<g>
			<defs>
				<polyline id="SVGID_9_" points="-327.6,387.9 -327.6,166.4 488.9,142.6 488.1,378.5 				"/>
			</defs>
			<clipPath id="SVGID_10_">
				<use xlink:href="#SVGID_9_"  style="overflow:visible;"/>
			</clipPath>
		</g>
	</g>
	<g id="patch_8">
		<g>
			<defs>
				<polyline id="SVGID_11_" points="-327.6,387.9 -327.6,166.4 488.9,142.6 488.1,378.5 				"/>
			</defs>
			<clipPath id="SVGID_12_">
				<use xlink:href="#SVGID_11_"  style="overflow:visible;"/>
			</clipPath>
		</g>
	</g>
	<g id="patch_9">
		<g>
			<defs>
				<polyline id="SVGID_13_" points="-327.6,387.9 -327.6,166.4 488.9,142.6 488.1,378.5 				"/>
			</defs>
			<clipPath id="SVGID_14_">
				<use xlink:href="#SVGID_13_"  style="overflow:visible;"/>
			</clipPath>
		</g>
	</g>
	<g id="patch_10">
		<g>
			<defs>
				<polyline id="SVGID_15_" points="-327.6,387.9 -327.6,166.4 488.9,142.6 488.1,378.5 				"/>
			</defs>
			<clipPath id="SVGID_16_">
				<use xlink:href="#SVGID_15_"  style="overflow:visible;"/>
			</clipPath>
			<path class="st2" d="M-208.1,339.2h-7.7"/>
		</g>
	</g>
	<g id="patch_11">
		<g>
			<defs>
				<polyline id="SVGID_17_" points="-327.6,387.9 -327.6,166.4 488.9,142.6 488.1,378.5 				"/>
			</defs>
			<clipPath id="SVGID_18_">
				<use xlink:href="#SVGID_17_"  style="overflow:visible;"/>
			</clipPath>
		</g>
	</g>
	<g id="patch_12">
		<g>
			<defs>
				<polyline id="SVGID_19_" points="-327.6,387.9 -327.6,166.4 488.9,142.6 488.1,378.5 				"/>
			</defs>
			<clipPath id="SVGID_20_">
				<use xlink:href="#SVGID_19_"  style="overflow:visible;"/>
			</clipPath>
		</g>
	</g>
	<g id="patch_13">
		<g>
			<defs>
				<polyline id="SVGID_21_" points="-327.6,387.9 -327.6,166.4 488.9,142.6 488.1,378.5 				"/>
			</defs>
			<clipPath id="SVGID_22_">
				<use xlink:href="#SVGID_21_"  style="overflow:visible;"/>
			</clipPath>
		</g>
	</g>
	<g id="patch_14">
		<g>
			<defs>
				<polyline id="SVGID_23_" points="-327.6,387.9 -327.6,166.4 488.9,142.6 488.1,378.5 				"/>
			</defs>
			<clipPath id="SVGID_24_">
				<use xlink:href="#SVGID_23_"  style="overflow:visible;"/>
			</clipPath>
		</g>
	</g>
	<g id="patch_15">
		<g>
			<defs>
				<polyline id="SVGID_25_" points="-327.6,387.9 -327.6,166.4 488.9,142.6 488.1,378.5 				"/>
			</defs>
			<clipPath id="SVGID_26_">
				<use xlink:href="#SVGID_25_"  style="overflow:visible;"/>
			</clipPath>
		</g>
	</g>
	<g id="patch_16">
		<g>
			<defs>
				<polyline id="SVGID_27_" points="-327.6,387.9 -327.6,166.4 488.9,142.6 488.1,378.5 				"/>
			</defs>
			<clipPath id="SVGID_28_">
				<use xlink:href="#SVGID_27_"  style="overflow:visible;"/>
			</clipPath>
		</g>
	</g>
	<g id="patch_17">
		<g>
			<defs>
				<polyline id="SVGID_29_" points="-327.6,387.9 -327.6,166.4 488.9,142.6 488.1,378.5 				"/>
			</defs>
			<clipPath id="SVGID_30_">
				<use xlink:href="#SVGID_29_"  style="overflow:visible;"/>
			</clipPath>
			<path class="st3" d="M-100.2,339.2h-7.7"/>
		</g>
	</g>
	<g id="patch_18">
		<g>
			<defs>
				<polyline id="SVGID_31_" points="-327.6,387.9 -327.6,166.4 488.9,142.6 488.1,378.5 				"/>
			</defs>
			<clipPath id="SVGID_32_">
				<use xlink:href="#SVGID_31_"  style="overflow:visible;"/>
			</clipPath>
		</g>
	</g>
	<g id="patch_19">
		<g>
			<defs>
				<polyline id="SVGID_33_" points="-327.6,387.9 -327.6,166.4 488.9,142.6 488.1,378.5 				"/>
			</defs>
			<clipPath id="SVGID_34_">
				<use xlink:href="#SVGID_33_"  style="overflow:visible;"/>
			</clipPath>
			<path class="st4" d="M-69.3,355.4H-77"/>
		</g>
	</g>
	<g id="patch_20">
		<g>
			<defs>
				<polyline id="SVGID_35_" points="-327.6,387.9 -327.6,166.4 488.9,142.6 488.1,378.5 				"/>
			</defs>
			<clipPath id="SVGID_36_">
				<use xlink:href="#SVGID_35_"  style="overflow:visible;"/>
			</clipPath>
		</g>
	</g>
	<g id="patch_21">
		<g>
			<defs>
				<polyline id="SVGID_37_" points="-327.6,387.9 -327.6,166.4 488.9,142.6 488.1,378.5 				"/>
			</defs>
			<clipPath id="SVGID_38_">
				<use xlink:href="#SVGID_37_"  style="overflow:visible;"/>
			</clipPath>
		</g>
	</g>
	<g id="patch_22">
		<g>
			<defs>
				<polyline id="SVGID_39_" points="-327.6,387.9 -327.6,166.4 488.9,142.6 488.1,378.5 				"/>
			</defs>
			<clipPath id="SVGID_40_">
				<use xlink:href="#SVGID_39_"  style="overflow:visible;"/>
			</clipPath>
		</g>
	</g>
	<g id="patch_23">
		<g>
			<defs>
				<polyline id="SVGID_41_" points="-327.6,387.9 -327.6,166.4 488.9,142.6 488.1,378.5 				"/>
			</defs>
			<clipPath id="SVGID_42_">
				<use xlink:href="#SVGID_41_"  style="overflow:visible;"/>
			</clipPath>
		</g>
	</g>
	<g id="patch_24">
		<g>
			<defs>
				<polyline id="SVGID_43_" points="-327.6,387.9 -327.6,166.4 488.9,142.6 488.1,378.5 				"/>
			</defs>
			<clipPath id="SVGID_44_">
				<use xlink:href="#SVGID_43_"  style="overflow:visible;"/>
			</clipPath>
		</g>
	</g>
	<g id="patch_25">
		<g>
			<defs>
				<polyline id="SVGID_45_" points="-327.6,387.9 -327.6,166.4 488.9,142.6 488.1,378.5 				"/>
			</defs>
			<clipPath id="SVGID_46_">
				<use xlink:href="#SVGID_45_"  style="overflow:visible;"/>
			</clipPath>
		</g>
	</g>
	<g id="patch_26">
		<g>
			<defs>
				<polyline id="SVGID_47_" points="-327.6,387.9 -327.6,166.4 488.9,142.6 488.1,378.5 				"/>
			</defs>
			<clipPath id="SVGID_48_">
				<use xlink:href="#SVGID_47_"  style="overflow:visible;"/>
			</clipPath>
		</g>
	</g>
	<g id="patch_27">
		<g>
			<defs>
				<polyline id="SVGID_49_" points="-327.6,387.9 -327.6,166.4 488.9,142.6 488.1,378.5 				"/>
			</defs>
			<clipPath id="SVGID_50_">
				<use xlink:href="#SVGID_49_"  style="overflow:visible;"/>
			</clipPath>
		</g>
	</g>
	<g id="patch_28">
		<g>
			<defs>
				<polyline id="SVGID_51_" points="-327.6,387.9 -327.6,166.4 488.9,142.6 488.1,378.5 				"/>
			</defs>
			<clipPath id="SVGID_52_">
				<use xlink:href="#SVGID_51_"  style="overflow:visible;"/>
			</clipPath>
		</g>
	</g>
	<g id="patch_29">
		<g>
			<defs>
				<polyline id="SVGID_53_" points="-327.6,387.9 -327.6,166.4 488.9,142.6 488.1,378.5 				"/>
			</defs>
			<clipPath id="SVGID_54_">
				<use xlink:href="#SVGID_53_"  style="overflow:visible;"/>
			</clipPath>
			<path class="st5" d="M84.9,355.4h-7.7"/>
		</g>
	</g>
	<g id="patch_30">
		<g>
			<defs>
				<polyline id="SVGID_55_" points="-327.6,387.9 -327.6,166.4 488.9,142.6 488.1,378.5 				"/>
			</defs>
			<clipPath id="SVGID_56_">
				<use xlink:href="#SVGID_55_"  style="overflow:visible;"/>
			</clipPath>
		</g>
	</g>
	<g id="patch_31">
		<g>
			<defs>
				<polyline id="SVGID_57_" points="-327.6,387.9 -327.6,166.4 488.9,142.6 488.1,378.5 				"/>
			</defs>
			<clipPath id="SVGID_58_">
				<use xlink:href="#SVGID_57_"  style="overflow:visible;"/>
			</clipPath>
		</g>
	</g>
	<g id="patch_32">
		<g>
			<defs>
				<polyline id="SVGID_59_" points="-327.6,387.9 -327.6,166.4 488.9,142.6 488.1,378.5 				"/>
			</defs>
			<clipPath id="SVGID_60_">
				<use xlink:href="#SVGID_59_"  style="overflow:visible;"/>
			</clipPath>
		</g>
	</g>
	<g id="patch_33">
		<g>
			<defs>
				<polyline id="SVGID_61_" points="-327.6,387.9 -327.6,166.4 488.9,142.6 488.1,378.5 				"/>
			</defs>
			<clipPath id="SVGID_62_">
				<use xlink:href="#SVGID_61_"  style="overflow:visible;"/>
			</clipPath>
		</g>
	</g>
	<g id="patch_34">
		<g>
			<defs>
				<polyline id="SVGID_63_" points="-327.6,387.9 -327.6,166.4 488.9,142.6 488.1,378.5 				"/>
			</defs>
			<clipPath id="SVGID_64_">
				<use xlink:href="#SVGID_63_"  style="overflow:visible;"/>
			</clipPath>
		</g>
	</g>
	<g id="patch_35">
		<g>
			<defs>
				<polyline id="SVGID_65_" points="-327.6,387.9 -327.6,166.4 488.9,142.6 488.1,378.5 				"/>
			</defs>
			<clipPath id="SVGID_66_">
				<use xlink:href="#SVGID_65_"  style="overflow:visible;"/>
			</clipPath>
		</g>
	</g>
	<g id="patch_36">
		<g>
			<defs>
				<polyline id="SVGID_67_" points="-327.6,387.9 -327.6,166.4 488.9,142.6 488.1,378.5 				"/>
			</defs>
			<clipPath id="SVGID_68_">
				<use xlink:href="#SVGID_67_"  style="overflow:visible;"/>
			</clipPath>
			<path class="st6" d="M192.9,355.4h-7.7"/>
		</g>
	</g>
	<g id="patch_37">
		<g>
			<defs>
				<polyline id="SVGID_69_" points="-327.6,387.9 -327.6,166.4 488.9,142.6 488.1,378.5 				"/>
			</defs>
			<clipPath id="SVGID_70_">
				<use xlink:href="#SVGID_69_"  style="overflow:visible;"/>
			</clipPath>
		</g>
	</g>
	<g id="patch_38">
		<g>
			<defs>
				<polyline id="SVGID_71_" points="-327.6,387.9 -327.6,166.4 488.9,142.6 488.1,378.5 				"/>
			</defs>
			<clipPath id="SVGID_72_">
				<use xlink:href="#SVGID_71_"  style="overflow:visible;"/>
			</clipPath>
		</g>
	</g>
	<g id="patch_39">
		<g>
			<defs>
				<polyline id="SVGID_73_" points="-327.6,387.9 -327.6,166.4 488.9,142.6 488.1,378.5 				"/>
			</defs>
			<clipPath id="SVGID_74_">
				<use xlink:href="#SVGID_73_"  style="overflow:visible;"/>
			</clipPath>
		</g>
	</g>
	<g id="patch_40">
		<g>
			<defs>
				<polyline id="SVGID_75_" points="-327.6,387.9 -327.6,166.4 488.9,142.6 488.1,378.5 				"/>
			</defs>
			<clipPath id="SVGID_76_">
				<use xlink:href="#SVGID_75_"  style="overflow:visible;"/>
			</clipPath>
		</g>
	</g>
	<g id="patch_41">
		<g>
			<defs>
				<polyline id="SVGID_77_" points="-327.6,387.9 -327.6,166.4 488.9,142.6 488.1,378.5 				"/>
			</defs>
			<clipPath id="SVGID_78_">
				<use xlink:href="#SVGID_77_"  style="overflow:visible;"/>
			</clipPath>
			<path class="st7" d="M183.5,378.5h7.7l0,0H183.5z"/>
		</g>
	</g>
	<g id="patch_42">
		<g>
			<defs>
				<polyline id="SVGID_79_" points="-327.6,387.9 -327.6,166.4 488.9,142.6 488.1,378.5 				"/>
			</defs>
			<clipPath id="SVGID_80_">
				<use xlink:href="#SVGID_79_"  style="overflow:visible;"/>
			</clipPath>
			<path class="st8" d="M198.9,378.5h7.7v-16.2h-7.7V378.5z"/>
		</g>
	</g>
	<g id="patch_43">
		<g>
			<defs>
				<polyline id="SVGID_81_" points="-327.6,387.9 -327.6,166.4 488.9,142.6 488.1,378.5 				"/>
			</defs>
			<clipPath id="SVGID_82_">
				<use xlink:href="#SVGID_81_"  style="overflow:visible;"/>
			</clipPath>
			<path class="st9" d="M214.3,378.5h7.7v-32.4h-7.7V378.5z"/>
		</g>
	</g>
	<g id="patch_44">
		<g>
			<defs>
				<polyline id="SVGID_83_" points="-327.6,387.9 -327.6,166.4 488.9,142.6 488.1,378.5 				"/>
			</defs>
			<clipPath id="SVGID_84_">
				<use xlink:href="#SVGID_83_"  style="overflow:visible;"/>
			</clipPath>
			<path class="st10" d="M229.8,378.5h7.7v-16.2h-7.7V378.5z"/>
		</g>
	</g>
	<g id="patch_45">
		<g>
			<defs>
				<polyline id="SVGID_85_" points="-327.6,387.9 -327.6,166.4 488.9,142.6 488.1,378.5 				"/>
			</defs>
			<clipPath id="SVGID_86_">
				<use xlink:href="#SVGID_85_"  style="overflow:visible;"/>
			</clipPath>
			<path class="st11" d="M245.2,378.5h7.7v-16.2h-7.7V378.5z"/>
		</g>
	</g>
	<g id="patch_46">
		<g>
			<defs>
				<polyline id="SVGID_87_" points="-327.6,387.9 -327.6,166.4 488.9,142.6 488.1,378.5 				"/>
			</defs>
			<clipPath id="SVGID_88_">
				<use xlink:href="#SVGID_87_"  style="overflow:visible;"/>
			</clipPath>
			<path class="st12" d="M260.6,378.5h7.7v-32.4h-7.7V378.5z"/>
		</g>
	</g>
	<g id="patch_47">
		<g>
			<defs>
				<polyline id="SVGID_89_" points="-327.6,387.9 -327.6,166.4 488.9,142.6 488.1,378.5 				"/>
			</defs>
			<clipPath id="SVGID_90_">
				<use xlink:href="#SVGID_89_"  style="overflow:visible;"/>
			</clipPath>
			<path class="st13" d="M276,378.5h7.7l0,0H276z"/>
		</g>
	</g>
	<g id="patch_48">
		<g>
			<defs>
				<polyline id="SVGID_91_" points="-327.6,387.9 -327.6,166.4 488.9,142.6 488.1,378.5 				"/>
			</defs>
			<clipPath id="SVGID_92_">
				<use xlink:href="#SVGID_91_"  style="overflow:visible;"/>
			</clipPath>
			<path class="st14" d="M291.5,378.5h7.7v-16.2h-7.7V378.5z"/>
		</g>
	</g>
	<g id="patch_49">
		<g>
			<defs>
				<polyline id="SVGID_93_" points="-327.6,387.9 -327.6,166.4 488.9,142.6 488.1,378.5 				"/>
			</defs>
			<clipPath id="SVGID_94_">
				<use xlink:href="#SVGID_93_"  style="overflow:visible;"/>
			</clipPath>
			<path class="st15" d="M306.9,378.5h7.7v-64.9h-7.7V378.5z"/>
		</g>
	</g>
	<g id="patch_50">
		<g>
			<defs>
				<polyline id="SVGID_95_" points="-327.6,387.9 -327.6,166.4 488.9,142.6 488.1,378.5 				"/>
			</defs>
			<clipPath id="SVGID_96_">
				<use xlink:href="#SVGID_95_"  style="overflow:visible;"/>
			</clipPath>
			<path class="st16" d="M322.3,378.5h7.7v-81.1h-7.7V378.5z"/>
		</g>
	</g>
	<g id="patch_51">
		<g>
			<defs>
				<polyline id="SVGID_97_" points="-327.6,387.9 -327.6,166.4 488.9,142.6 488.1,378.5 				"/>
			</defs>
			<clipPath id="SVGID_98_">
				<use xlink:href="#SVGID_97_"  style="overflow:visible;"/>
			</clipPath>
			<path class="st17" d="M337.7,378.5h7.7v-97.3h-7.7V378.5z"/>
		</g>
	</g>
	<g id="patch_52">
		<g>
			<defs>
				<polyline id="SVGID_99_" points="-327.6,387.9 -327.6,166.4 488.9,142.6 488.1,378.5 				"/>
			</defs>
			<clipPath id="SVGID_100_">
				<use xlink:href="#SVGID_99_"  style="overflow:visible;"/>
			</clipPath>
			<path class="st18" d="M353.2,378.5h7.7v-16.2h-7.7V378.5z"/>
		</g>
	</g>
	<g id="patch_53">
		<g>
			<defs>
				<polyline id="SVGID_101_" points="-327.6,387.9 -327.6,166.4 488.9,142.6 488.1,378.5 				"/>
			</defs>
			<clipPath id="SVGID_102_">
				<use xlink:href="#SVGID_101_"  style="overflow:visible;"/>
			</clipPath>
			<path class="st19" d="M368.6,378.5h7.7v-64.9h-7.7V378.5z"/>
		</g>
	</g>
	<g id="patch_54">
		<g>
			<defs>
				<polyline id="SVGID_103_" points="-327.6,387.9 -327.6,166.4 488.9,142.6 488.1,378.5 				"/>
			</defs>
			<clipPath id="SVGID_104_">
				<use xlink:href="#SVGID_103_"  style="overflow:visible;"/>
			</clipPath>
			<path class="st20" d="M384,378.5h7.7v-97.3H384V378.5z"/>
		</g>
	</g>
	<g id="patch_55">
		<g>
			<defs>
				<polyline id="SVGID_105_" points="-327.6,387.9 -327.6,166.4 488.9,142.6 488.1,378.5 				"/>
			</defs>
			<clipPath id="SVGID_106_">
				<use xlink:href="#SVGID_105_"  style="overflow:visible;"/>
			</clipPath>
			<path class="st21" d="M399.4,378.5h7.7v-48.7h-7.7V378.5z"/>
		</g>
	</g>
	<g id="patch_56">
		<g>
			<defs>
				<polyline id="SVGID_107_" points="-327.6,387.9 -327.6,166.4 488.9,142.6 488.1,378.5 				"/>
			</defs>
			<clipPath id="SVGID_108_">
				<use xlink:href="#SVGID_107_"  style="overflow:visible;"/>
			</clipPath>
			<path class="st22" d="M414.8,378.5h7.7v-64.9h-7.7V378.5z"/>
		</g>
	</g>
	<g id="patch_57">
		<g>
			<defs>
				<polyline id="SVGID_109_" points="-327.6,387.9 -327.6,166.4 488.9,142.6 488.1,378.5 				"/>
			</defs>
			<clipPath id="SVGID_110_">
				<use xlink:href="#SVGID_109_"  style="overflow:visible;"/>
			</clipPath>
			<path class="st23" d="M430.3,378.5h7.7v-32.4h-7.7V378.5z"/>
		</g>
	</g>
	<g id="patch_58">
		<g>
			<defs>
				<polyline id="SVGID_111_" points="-327.6,387.9 -327.6,166.4 488.9,142.6 488.1,378.5 				"/>
			</defs>
			<clipPath id="SVGID_112_">
				<use xlink:href="#SVGID_111_"  style="overflow:visible;"/>
			</clipPath>
			<path class="st24" d="M445.7,378.5h7.7V183.9h-7.7V378.5z"/>
		</g>
	</g>
	<g id="patch_59">
		<g>
			<defs>
				<polyline id="SVGID_113_" points="-327.6,387.9 -327.6,166.4 488.9,142.6 488.1,378.5 				"/>
			</defs>
			<clipPath id="SVGID_114_">
				<use xlink:href="#SVGID_113_"  style="overflow:visible;"/>
			</clipPath>
			<path class="st25" d="M461.1,378.5h7.7V265h-7.7V378.5z"/>
		</g>
	</g>
	<g id="patch_60">
		<g>
			<defs>
				<polyline id="SVGID_115_" points="-327.6,387.9 -323.5,172.5 510,180 508.6,395.4 				"/>
			</defs>
			<clipPath id="SVGID_116_">
				<use xlink:href="#SVGID_115_"  style="overflow:visible;"/>
			</clipPath>
			<path class="st26" d="M476.5,378.5h7.7V167.7h-7.7V378.5z"/>
		</g>
	</g>
	<g id="matplotlib.axis_1">
		<g id="xtick_1">
			<g id="line2d_1">
				<g>
					<g>
						<path id="md7268db801_1_" class="st27" d="M-319.9,387.9"/>
					</g>
				</g>
			</g>
		</g>
		<g id="xtick_39">
			<g id="line2d_39">
				<g>
					<g>
						<path id="md7268db801_60_" class="st27" d="M187.4,378.5"/>
					</g>
				</g>
			</g>
		</g>
		<g id="xtick_40">
			<g id="line2d_40">
				<g>
					<g>
						<path id="md7268db801_58_" class="st27" d="M202.8,378.5"/>
					</g>
				</g>
			</g>
		</g>
		<g id="xtick_41">
			<g id="line2d_41">
				<g>
					<g>
						<path id="md7268db801_36_" class="st27" d="M218.2,378.5"/>
					</g>
				</g>
			</g>
		</g>
		<g id="xtick_42">
			<g id="line2d_42">
				<g>
					<g>
						<path id="md7268db801_34_" class="st27" d="M233.6,378.5"/>
					</g>
				</g>
			</g>
		</g>
		<g id="xtick_43">
			<g id="line2d_43">
				<g>
					<g>
						<path id="md7268db801_32_" class="st27" d="M249.1,378.5"/>
					</g>
				</g>
			</g>
		</g>
		<g id="xtick_44">
			<g id="line2d_44">
				<g>
					<g>
						<path id="md7268db801_30_" class="st27" d="M264.5,378.5"/>
					</g>
				</g>
			</g>
		</g>
		<g id="xtick_45">
			<g id="line2d_45">
				<g>
					<g>
						<path id="md7268db801_28_" class="st27" d="M279.9,378.5"/>
					</g>
				</g>
			</g>
		</g>
		<g id="xtick_46">
			<g id="line2d_46">
				<g>
					<g>
						<path id="md7268db801_26_" class="st27" d="M295.3,378.5"/>
					</g>
				</g>
			</g>
		</g>
		<g id="xtick_47">
			<g id="line2d_47">
				<g>
					<g>
						<path id="md7268db801_24_" class="st27" d="M310.7,378.5"/>
					</g>
				</g>
			</g>
		</g>
		<g id="xtick_48">
			<g id="line2d_48">
				<g>
					<g>
						<path id="md7268db801_22_" class="st27" d="M326.2,378.5"/>
					</g>
				</g>
			</g>
		</g>
		<g id="xtick_49">
			<g id="line2d_49">
				<g>
					<g>
						<path id="md7268db801_20_" class="st27" d="M341.6,378.5"/>
					</g>
				</g>
			</g>
		</g>
		<g id="xtick_50">
			<g id="line2d_50">
				<g>
					<g>
						<path id="md7268db801_18_" class="st27" d="M357,378.5"/>
					</g>
				</g>
			</g>
		</g>
		<g id="xtick_51">
			<g id="line2d_51">
				<g>
					<g>
						<path id="md7268db801_16_" class="st27" d="M372.4,378.5"/>
					</g>
				</g>
			</g>
		</g>
		<g id="xtick_52">
			<g id="line2d_52">
				<g>
					<g>
						<path id="md7268db801_14_" class="st27" d="M387.9,378.5"/>
					</g>
				</g>
			</g>
		</g>
		<g id="xtick_53">
			<g id="line2d_53">
				<g>
					<g>
						<path id="md7268db801_12_" class="st27" d="M403.3,378.5"/>
					</g>
				</g>
			</g>
		</g>
		<g id="xtick_54">
			<g id="line2d_54">
				<g>
					<g>
						<path id="md7268db801_10_" class="st27" d="M418.7,378.5"/>
					</g>
				</g>
			</g>
		</g>
		<g id="xtick_55">
			<g id="line2d_55">
				<g>
					<g>
						<path id="md7268db801_8_" class="st27" d="M434.1,378.5"/>
					</g>
				</g>
			</g>
		</g>
		<g id="xtick_56">
			<g id="line2d_56">
				<g>
					<g>
						<path id="md7268db801_6_" class="st27" d="M449.5,378.5"/>
					</g>
				</g>
			</g>
		</g>
		<g id="xtick_57">
			<g id="line2d_57">
				<g>
					<g>
						<path id="md7268db801_4_" class="st27" d="M465,378.5"/>
					</g>
				</g>
			</g>
		</g>
		<g id="xtick_58">
			<g id="line2d_58">
				<g>
					<g>
						<path id="md7268db801_2_" class="st27" d="M480.4,378.5"/>
					</g>
				</g>
			</g>
		</g>
		<g id="text_59">
			<g transform="translate(209.449219 376.804688)scale(0.1 -0.1)">
				<g>
					<path id="DejaVuSans-61" d="M-947-1383"/>
				</g>
				<g>
					<path id="DejaVuSans-65" d="M-625.5-1381.9c-9-0.7-18.2-1.1-27.5-1.1"/>
				</g>
			</g>
		</g>
	</g>
	<g id="matplotlib.axis_2">
		<g id="ytick_1">
			<g id="line2d_59">
				<g>
					<g>
						<path id="m1719223613_13_" class="st27" d="M252.9,387.7"/>
					</g>
				</g>
			</g>
		</g>
		<g id="ytick_2">
			<g id="line2d_60">
				<g>
					<g>
						<path id="m1719223613_12_" class="st27" d="M174.9,363.5"/>
					</g>
				</g>
			</g>
		</g>
		<g id="ytick_3">
			<g id="line2d_61">
				<g>
					<g>
						<path id="m1719223613_11_" class="st27" d="M174.9,331.1"/>
					</g>
				</g>
			</g>
		</g>
		<g id="ytick_4">
			<g id="line2d_62">
				<g>
					<g>
						<path id="m1719223613_10_" class="st27" d="M174.9,298.6"/>
					</g>
				</g>
			</g>
		</g>
		<g id="ytick_5">
			<g id="line2d_63">
				<g>
					<g>
						<path id="m1719223613_9_" class="st27" d="M174.9,266.2"/>
					</g>
				</g>
			</g>
		</g>
		<g id="ytick_6">
			<g id="line2d_64">
				<g>
					<g>
						<path id="m1719223613_8_" class="st27" d="M174.9,233.7"/>
					</g>
				</g>
			</g>
		</g>
		<g id="ytick_7">
			<g id="line2d_65">
				<g>
					<g>
						<path id="m1719223613_7_" class="st27" d="M174.9,201.3"/>
					</g>
				</g>
			</g>
		</g>
	</g>
	<g id="patch_61">
		<path class="st28" d="M-327.6,166.4"/>
		<path class="st28" d="M-327.6,387.9"/>
	</g>
	<g id="patch_62">
		<path class="st28" d="M488.9,142.6"/>
		<path class="st28" d="M488.1,378.5"/>
	</g>
	<g id="patch_63">
		<path class="st28" d="M-327.6,387.9"/>
	</g>
	<g id="patch_64">
		<path class="st28" d="M488.1,167.7"/>
		<path class="st28" d="M-327.6,166.4"/>
	</g>
	<g id="text_67">
		<g transform="translate(113.8575 28.56)scale(0.12 -0.12)">
			<g>
				<path id="DejaVuSans-20_58_" d="M-1273.2-1098.1"/>
			</g>
			<g>
				<path id="DejaVuSans-4d_4_" d="M606-1166.8h-25.6"/>
				<path id="DejaVuSans-4d_3_" d="M682.7-1152.5h-26.5"/>
				<path id="DejaVuSans-4d_2_" d="M758.6-1166.8h-25.7"/>
				<path id="DejaVuSans-4d_1_" d="M669.4-1143.1"/>
			</g>
		</g>
	</g>
	<line class="st29" x1="449.6" y1="183.3" x2="449.6" y2="173.4"/>
	<path class="st29" d="M449.6,175.7"/>
</g>
<path class="st30" d="M193.3,378.5h237.8H193.3z"/>
<path class="st30" d="M246.2,378.5h237.8H246.2z"/>
<line class="st30" x1="192.7" y1="378.4" x2="193.9" y2="166.9"/>
<text transform="matrix(1 0 0 1 183.8819 183.3469)"><tspan x="0" y="0" class="st31 st32">12</tspan><tspan x="0" y="32.4" class="st31 st32">10</tspan><tspan x="0" y="64.8" class="st31 st32">8</tspan><tspan x="0" y="97.2" class="st31 st32">6</tspan><tspan x="0" y="129.6" class="st31 st32">4</tspan><tspan x="0" y="162" class="st31 st32">2</tspan><tspan x="0" y="194.4" class="st31 st32">0</tspan></text>
<text transform="matrix(1 0 0 1 193.2864 384.9622)" class="st31 st32">1945</text>
<text transform="matrix(1 0 0 1 299.8553 384.9624)" class="st31 st32">1961</text>
<text transform="matrix(1 0 0 1 468.3622 384.962)" class="st31 st32">2017</text>
<text transform="matrix(1 0 0 1 408.1553 384.9622)" class="st31 st32">1993</text>
<text transform="matrix(1 0 0 1 207.8541 37.6861)" class="st33 st34">ACTING CABINET MEMBERS</text>
<text transform="matrix(1 0 0 1 154.2883 65.0083)"><tspan x="0" y="0" class="st31 st35">Acting cabinet members can be in place while the President awaits Senate </tspan><tspan x="-29.9" y="15.6" class="st31 st35">confirmation of his/her top picks. Recent trends suggest that - despite Presidents often</tspan><tspan x="-23.5" y="31.2" class="st31 st35">entering  office with a party consensus in Congress - recent Presidents have a harder</tspan><tspan x="42.5" y="46.8" class="st31 st35">time getting their cabinet confirmed during their first term.</tspan></text>
</svg>
