<?xml version="1.0" encoding="utf-8"?>
<!-- Generator: Adobe Illustrator 21.1.0, SVG Export Plug-In . SVG Version: 6.00 Build 0)  -->
<svg version="1.1" id="Layer_1" xmlns="http://www.w3.org/2000/svg" xmlns:xlink="http://www.w3.org/1999/xlink" x="0px" y="0px"
	 viewBox="0 0 851.7 761.6" style="enable-background:new 0 0 851.7 761.6;" xml:space="preserve">
<style type="text/css">
	.st0{stroke:#000000;stroke-width:0.8;stroke-linejoin:round;}
	.st1{clip-path:url(#SVGID_2_);fill:none;stroke:#1F77B4;stroke-width:6;stroke-linecap:square;stroke-linejoin:round;}
	.st2{clip-path:url(#SVGID_4_);fill:none;stroke:#92280C;stroke-width:6;stroke-linecap:square;stroke-linejoin:round;}
	.st3{fill:none;stroke:#000000;stroke-width:0.8;stroke-linecap:square;}
	.st4{fill:none;stroke:#1F77B4;stroke-width:6;stroke-linecap:square;stroke-linejoin:round;}
	.st5{fill:none;stroke:#92280C;stroke-width:6;stroke-linecap:square;stroke-linejoin:round;}
	.st6{font-family:'Optima-Regular';}
	.st7{font-size:18.194px;}
	.st8{font-size:18px;}
	.st9{font-size:14px;}
	.st10{font-family:'Optima-Bold';}
	.st11{font-size:21px;}
</style>
<g id="matplotlib.axis_1">
	<g id="xtick_1">
		<g id="line2d_1">
			<g>
				<g>
					<path id="ma0d10855a5_15_" class="st0" d="M75.9,701.8"/>
				</g>
			</g>
		</g>
	</g>
	<g id="xtick_2">
		<g id="line2d_2">
			<g>
				<g>
					<path id="ma0d10855a5_14_" class="st0" d="M165.7,701.8"/>
				</g>
			</g>
		</g>
	</g>
	<g id="xtick_3">
		<g id="line2d_3">
			<g>
				<g>
					<path id="ma0d10855a5_13_" class="st0" d="M255.4,701.8"/>
				</g>
			</g>
		</g>
	</g>
	<g id="xtick_4">
		<g id="line2d_4">
			<g>
				<g>
					<path id="ma0d10855a5_12_" class="st0" d="M345.1,701.8"/>
				</g>
			</g>
		</g>
	</g>
	<g id="xtick_5">
		<g id="line2d_5">
			<g>
				<g>
					<path id="ma0d10855a5_11_" class="st0" d="M434.9,701.8"/>
				</g>
			</g>
		</g>
		<g id="text_3">
			<g transform="translate(563.56875 392.598437)scale(0.1 -0.1)">
				<g>
					<path id="DejaVuSans-34" d="M-1320.8-3280.2h10"/>
				</g>
			</g>
		</g>
	</g>
	<g id="xtick_6">
		<g id="line2d_6">
			<g>
				<g>
					<path id="ma0d10855a5_8_" class="st0" d="M524.6,701.8"/>
				</g>
			</g>
		</g>
	</g>
	<g id="xtick_7">
		<g id="line2d_7">
			<g>
				<g>
					<path id="ma0d10855a5_7_" class="st0" d="M614.4,701.8"/>
				</g>
			</g>
		</g>
	</g>
	<g id="xtick_8">
		<g id="line2d_8">
			<g>
				<g>
					<path id="ma0d10855a5_10_" class="st0" d="M704.1,701.8"/>
				</g>
			</g>
		</g>
	</g>
	<g id="xtick_9">
		<g id="line2d_9">
			<g>
				<g>
					<path id="ma0d10855a5_9_" class="st0" d="M793.9,701.8"/>
				</g>
			</g>
		</g>
	</g>
</g>
<g id="matplotlib.axis_2">
	<g id="ytick_1">
		<g id="line2d_10">
			<g>
				<g>
					<path id="mf02aba3b66_8_" class="st0" d="M74.2,658.6"/>
				</g>
			</g>
		</g>
	</g>
	<g id="ytick_2">
		<g id="line2d_11">
			<g>
				<g>
					<path id="mf02aba3b66_7_" class="st0" d="M74.2,579.3"/>
				</g>
			</g>
		</g>
	</g>
	<g id="ytick_3">
		<g id="line2d_12">
			<g>
				<g>
					<path id="mf02aba3b66_6_" class="st0" d="M74.2,500"/>
				</g>
			</g>
		</g>
	</g>
	<g id="ytick_4">
		<g id="line2d_13">
			<g>
				<g>
					<path id="mf02aba3b66_1_" class="st0" d="M74.2,420.8"/>
				</g>
			</g>
		</g>
	</g>
	<g id="ytick_5">
		<g id="line2d_14">
			<g>
				<g>
					<path id="mf02aba3b66_2_" class="st0" d="M74.2,341.5"/>
				</g>
			</g>
		</g>
	</g>
	<g id="ytick_6">
		<g id="line2d_15">
			<g>
				<g>
					<path id="mf02aba3b66_3_" class="st0" d="M74.2,262.2"/>
				</g>
			</g>
		</g>
	</g>
</g>
<g id="line2d_16">
	<g>
		<defs>
			<polygon id="SVGID_1_" points="74.2,198.3 792.2,198.3 793.9,701.8 75.9,701.8 			"/>
		</defs>
		<clipPath id="SVGID_2_">
			<use xlink:href="#SVGID_1_"  style="overflow:visible;"/>
		</clipPath>
		<path class="st1" d="M73.5,527L253,423.9l179.5,6.3l179.5-3.2l179.5-204.6"/>
	</g>
</g>
<g id="line2d_17">
	<g>
		<defs>
			<polygon id="SVGID_3_" points="75.4,198.3 793.3,198.3 795,701.8 77.1,701.8 			"/>
		</defs>
		<clipPath id="SVGID_4_">
			<use xlink:href="#SVGID_3_"  style="overflow:visible;"/>
		</clipPath>
		<path class="st2" d="M74.4,645.6L252.2,484l179.5-46l179.5,99.9l179.5,66.6"/>
	</g>
</g>
<g id="patch_3">
	<path class="st3" d="M75.9,701.8l-1.7-503.6"/>
</g>
<g id="patch_4">
	<path class="st3" d="M793.9,701.8l-1.7-503.6"/>
</g>
<g id="patch_5">
	<path class="st3" d="M75.9,701.8h717.9"/>
</g>
<g id="patch_6">
	<path class="st3" d="M76.2,198.3h717.9"/>
</g>
<g id="legend_1">
	<g id="line2d_18">
		<path class="st4" d="M81.5,222.5h16.1"/>
	</g>
	<g id="line2d_19">
	</g>
	<g id="line2d_20">
		<path class="st5" d="M81.5,240.8h16.1"/>
	</g>
	<g id="line2d_21">
	</g>
</g>
<text transform="matrix(0.9893 0 0 1 41.841 119.0834)"><tspan x="0" y="0" class="st6 st7">The AJC has drastically increased its national political coverage between the last two US Presidential </tspan><tspan x="43" y="21.8" class="st6 st7">elections, although coverage of local/regional politics remained relatively steady between </tspan><tspan x="26.3" y="43.7" class="st6 st7">2012 and 2016. Poltical coverage of local politics peaked in 2014, where the state of Georgia </tspan><tspan x="195.7" y="65.5" class="st6 st7">had midterm elections for Senate and House seats. </tspan></text>
<text transform="matrix(1 0 0 1 77.5325 720.6172)" class="st6 st8">2012</text>
<text transform="matrix(1 0 0 1 242.2304 720.6172)" class="st6 st8">2013</text>
<text transform="matrix(1 0 0 1 411.4718 720.6172)" class="st6 st8">2014</text>
<text transform="matrix(1 0 0 1 599.563 720.6172)" class="st6 st8">2015</text>
<text transform="matrix(1 0 0 1 756.473 720.6172)" class="st6 st8">2016</text>
<text transform="matrix(1 0 0 1 46.192 211.5453)"><tspan x="0" y="0" class="st6 st9">350</tspan><tspan x="0" y="84" class="st6 st9">300</tspan><tspan x="0" y="151.2" class="st6 st9">250</tspan><tspan x="0" y="218.4" class="st6 st9">200</tspan><tspan x="0" y="285.6" class="st6 st9">150</tspan><tspan x="0" y="352.8" class="st6 st9">100</tspan><tspan x="3.9" y="420" class="st6 st9">50</tspan><tspan x="7.8" y="487.2" class="st6 st9">0</tspan></text>
<text transform="matrix(1 0 0 1 199.4731 66.1971)" class="st10 st11">THE CHANGING FACE OF FRONT PAGE NEWS </text>
<text transform="matrix(1 0 0 1 106.3544 226.5036)"><tspan x="0" y="0" class="st10 st9">National Political Headlines</tspan><tspan x="0" y="16.8" class="st10 st9">Regional/Local Political Headlines</tspan></text>
</svg>
