<?xml version="1.0" encoding="utf-8"?>
<!-- Generator: Adobe Illustrator 21.1.0, SVG Export Plug-In . SVG Version: 6.00 Build 0)  -->
<svg version="1.1" id="Layer_1" xmlns="http://www.w3.org/2000/svg" xmlns:xlink="http://www.w3.org/1999/xlink" x="0px" y="0px"
	 viewBox="0 0 636.8 452" style="enable-background:new 0 0 636.8 452;" xml:space="preserve">
<style type="text/css">
	.st0{fill:#FFFFFF;}
	.st1{fill:none;}
	.st2{fill:#92280C;}
	.st3{fill:#1F77B4;}
	.st4{stroke:#000000;stroke-width:0.8;stroke-linejoin:round;}
	.st5{fill:none;stroke:#000000;stroke-width:0.8;stroke-linecap:square;}
	.st6{font-family:'Optima-Regular';}
	.st7{font-size:12px;}
	.st8{letter-spacing:25;}
	.st9{letter-spacing:32;}
	.st10{letter-spacing:12;}
	.st11{letter-spacing:9;}
	.st12{font-family:'Optima-Bold';}
	.st13{font-size:21px;}
	.st14{font-size:18px;}
	.st15{fill:none;stroke:#1F77B4;stroke-width:6;stroke-linecap:square;stroke-linejoin:round;}
	.st16{fill:none;stroke:#92280C;stroke-width:6;stroke-linecap:square;stroke-linejoin:round;}
	.st17{font-size:14px;}
</style>
<g id="figure_1">
	<g id="axes_1">
		<g id="patch_2">
			<path class="st0" d="M111.2,411.7H600V91.7H111.2V411.7z"/>
		</g>
		<g id="patch_3">
			<rect x="111.2" y="91.7" class="st1" width="488.8" height="320.1"/>
			<path class="st2" d="M111.2,404.5h33.7v-14.5h-33.7V404.5z"/>
		</g>
		<g id="patch_4">
			<rect x="111.2" y="91.7" class="st1" width="488.8" height="320.1"/>
			<path class="st2" d="M111.2,375.4H152v-14.5h-40.8V375.4z"/>
		</g>
		<g id="patch_5">
			<rect x="111.2" y="91.7" class="st1" width="488.8" height="320.1"/>
			<path class="st2" d="M111.2,346.3h46.6v-14.5h-46.6V346.3z"/>
		</g>
		<g id="patch_6">
			<rect x="111.2" y="91.7" class="st1" width="488.8" height="320.1"/>
			<path class="st2" d="M111.2,317.2h51.6v-14.5h-51.6V317.2z"/>
		</g>
		<g id="patch_7">
			<rect x="111.2" y="91.7" class="st1" width="488.8" height="320.1"/>
			<path class="st2" d="M111.2,288.1h88.1v-14.5h-88.1V288.1z"/>
		</g>
		<g id="patch_8">
			<rect x="111.2" y="91.7" class="st1" width="488.8" height="320.1"/>
			<path class="st2" d="M111.2,259h89.5v-14.5h-89.5V259z"/>
		</g>
		<g id="patch_9">
			<rect x="111.2" y="91.7" class="st1" width="488.8" height="320.1"/>
			<path class="st3" d="M111.2,229.9h131.1v-14.5H111.2V229.9z"/>
		</g>
		<g id="patch_10">
			<rect x="111.2" y="91.7" class="st1" width="488.8" height="320.1"/>
			<path class="st3" d="M111.2,200.8H387v-14.5H111.2V200.8z"/>
		</g>
		<g id="patch_11">
			<rect x="111.2" y="91.7" class="st1" width="488.8" height="320.1"/>
			<path class="st2" d="M111.2,171.7h308v-14.5h-308V171.7z"/>
		</g>
		<g id="patch_12">
			<rect x="111.2" y="91.7" class="st1" width="488.8" height="320.1"/>
			<path class="st3" d="M111.2,142.6h403.9V128H111.2V142.6z"/>
		</g>
		<g id="patch_13">
			<rect x="111.2" y="91.7" class="st1" width="488.8" height="320.1"/>
			<path class="st2" d="M111.2,113.5h465.5V98.9H111.2V113.5z"/>
		</g>
		<g id="matplotlib.axis_1">
			<g id="xtick_1">
				<g id="line2d_1">
					<g>
						<g>
							<path id="m07e187378a_13_" class="st4" d="M111.2,411.7"/>
						</g>
					</g>
				</g>
			</g>
			<g id="xtick_2">
				<g id="line2d_2">
					<g>
						<g>
							<path id="m07e187378a_12_" class="st4" d="M182.8,411.7"/>
						</g>
					</g>
				</g>
			</g>
			<g id="xtick_3">
				<g id="line2d_3">
					<g>
						<g>
							<path id="m07e187378a_11_" class="st4" d="M254.5,411.7"/>
						</g>
					</g>
				</g>
				<g id="text_3">
					<g transform="translate(142.56614 266.598437)scale(0.1 -0.1)">
						<g>
							<path id="DejaVuSans-30_4_" d="M1248.6-1612.7"/>
						</g>
					</g>
				</g>
			</g>
			<g id="xtick_4">
				<g id="line2d_4">
					<g>
						<g>
							<path id="m07e187378a_10_" class="st4" d="M326.1,411.7"/>
						</g>
					</g>
				</g>
				<g id="text_4">
					<g transform="translate(191.621085 266.598437)scale(0.1 -0.1)">
						<g>
							<path id="DejaVuSans-33_1_" d="M1244.8-1668.3"/>
						</g>
						<g>
							<path id="DejaVuSans-30_5_" d="M1344.5-1668.3"/>
						</g>
						<g>
							<path id="DejaVuSans-30_6_" d="M1437.4-1668.3"/>
						</g>
					</g>
				</g>
			</g>
			<g id="xtick_5">
				<g id="line2d_5">
					<g>
						<g>
							<path id="m07e187378a_9_" class="st4" d="M397.7,411.7"/>
						</g>
					</g>
				</g>
			</g>
			<g id="xtick_6">
				<g id="line2d_6">
					<g>
						<g>
							<path id="m07e187378a_8_" class="st4" d="M469.3,411.7"/>
						</g>
					</g>
				</g>
				<g id="text_6">
					<g transform="translate(289.730975 266.598437)scale(0.1 -0.1)">
						<g>
							<path id="DejaVuSans-30_10_" d="M1916.1-1571.3"/>
						</g>
					</g>
				</g>
			</g>
			<g id="xtick_7">
				<g id="line2d_7">
					<g>
						<g>
							<path id="m07e187378a_7_" class="st4" d="M540.9,411.7"/>
						</g>
					</g>
				</g>
			</g>
		</g>
		<g id="matplotlib.axis_2">
			<g id="ytick_1">
				<g id="line2d_8">
					<g>
						<g>
							<path id="m0d0ab08673_21_" class="st4" d="M111.2,397.2"/>
						</g>
					</g>
				</g>
			</g>
			<g id="ytick_2">
				<g id="line2d_9">
					<g>
						<g>
							<path id="m0d0ab08673_20_" class="st4" d="M111.2,368.1"/>
						</g>
					</g>
				</g>
			</g>
			<g id="ytick_3">
				<g id="line2d_10">
					<g>
						<g>
							<path id="m0d0ab08673_19_" class="st4" d="M111.2,339"/>
						</g>
					</g>
				</g>
			</g>
			<g id="ytick_4">
				<g id="line2d_11">
					<g>
						<g>
							<path id="m0d0ab08673_18_" class="st4" d="M111.2,309.9"/>
						</g>
					</g>
				</g>
			</g>
			<g id="ytick_5">
				<g id="line2d_12">
					<g>
						<g>
							<path id="m0d0ab08673_17_" class="st4" d="M111.2,280.8"/>
						</g>
					</g>
				</g>
			</g>
			<g id="ytick_6">
				<g id="line2d_13">
					<g>
						<g>
							<path id="m0d0ab08673_16_" class="st4" d="M111.2,251.7"/>
						</g>
					</g>
				</g>
			</g>
			<g id="ytick_7">
				<g id="line2d_14">
					<g>
						<g>
							<path id="m0d0ab08673_15_" class="st4" d="M111.2,222.6"/>
						</g>
					</g>
				</g>
			</g>
			<g id="ytick_8">
				<g id="line2d_15">
					<g>
						<g>
							<path id="m0d0ab08673_14_" class="st4" d="M111.2,193.5"/>
						</g>
					</g>
				</g>
			</g>
			<g id="ytick_9">
				<g id="line2d_16">
					<g>
						<g>
							<path id="m0d0ab08673_13_" class="st4" d="M111.2,164.4"/>
						</g>
					</g>
				</g>
			</g>
			<g id="ytick_10">
				<g id="line2d_17">
					<g>
						<g>
							<path id="m0d0ab08673_12_" class="st4" d="M111.2,135.3"/>
						</g>
					</g>
				</g>
			</g>
			<g id="ytick_11">
				<g id="line2d_18">
					<g>
						<g>
							<path id="m0d0ab08673_11_" class="st4" d="M111.2,106.2"/>
						</g>
					</g>
				</g>
			</g>
		</g>
		<g id="patch_14">
			<path class="st5" d="M111.2,411.7V91.7"/>
		</g>
		<g id="patch_15">
			<path class="st5" d="M600,91.7"/>
			<path class="st5" d="M600,411.7"/>
		</g>
		<g id="patch_16">
			<path class="st5" d="M111.2,411.7H600"/>
		</g>
		<g id="patch_17">
			<path class="st5" d="M600,91.7"/>
			<path class="st5" d="M111.2,91.7"/>
		</g>
		<g id="text_20">
			<g transform="translate(170.050313 28.56)scale(0.12 -0.12)">
				<g>
					<path id="DejaVuSans-70_3_" d="M1215.3-482.9h-13.2"/>
				</g>
			</g>
		</g>
	</g>
</g>
<text transform="matrix(1 0 0 1 12.8303 114.4826)"><tspan x="0" y="0" class="st6 st7">Gov. Nathan Deal</tspan><tspan x="18.7" y="28.8" class="st6 st7">Donald Trump</tspan><tspan x="-2.6" y="57.6" class="st6 st7">Mayor Kasim Reed</tspan><tspan x="18" y="86.4" class="st6 st7">Hillary Clinton</tspan><tspan x="23.4" y="115.2" class="st6 st7">Barak Obama</tspan><tspan x="12" y="144" class="st6 st7">Rep. John Lewis</tspan><tspan x="-1.3" y="172.8" class="st6 st7">Sen. David Perdue</tspan><tspan x="-8" y="201.6" class="st6 st7">Sen. Johnny Isakson</tspan><tspan x="34" y="230.4" class="st6 st7">Brian Kemp</tspan><tspan x="15.3" y="259.2" class="st6 st7">Rep. Tom Price</tspan><tspan x="23.3" y="288" class="st6 st7">Sonny Perdue</tspan></text>
<text transform="matrix(1 0 0 1 108.5923 428.8635)"><tspan x="0" y="0" class="st6 st7">0</tspan><tspan x="6.7" y="0" class="st6 st7 st8">	</tspan><tspan x="36" y="0" class="st6 st7 st9">	</tspan><tspan x="72" y="0" class="st6 st7">100</tspan><tspan x="92" y="0" class="st6 st7 st10">	</tspan><tspan x="108" y="0" class="st6 st7 st9">	</tspan><tspan x="144" y="0" class="st6 st7">200 </tspan><tspan x="167.4" y="0" class="st6 st7 st11">	</tspan><tspan x="180" y="0" class="st6 st7 st9">	</tspan><tspan x="216" y="0" class="st6 st7">300</tspan><tspan x="236" y="0" class="st6 st7 st10">	</tspan><tspan x="252" y="0" class="st6 st7 st9">	</tspan><tspan x="288" y="0" class="st6 st7">400 </tspan><tspan x="311.4" y="0" class="st6 st7 st11">	</tspan><tspan x="324" y="0" class="st6 st7 st9">	</tspan><tspan x="360" y="0" class="st6 st7">500</tspan><tspan x="380" y="0" class="st6 st7 st10">	</tspan><tspan x="396" y="0" class="st6 st7 st9">	</tspan><tspan x="432" y="0" class="st6 st7">600</tspan></text>
<text transform="matrix(1 0 0 1 137.1125 35.7634)" class="st12 st13">POLITICIANS ON THE FRONT PAGE</text>
<text transform="matrix(1 0 0 1 77.3816 69.0723)" class="st6 st14">35% of front page stories focused on candidate Donald Trump</text>
<g id="legend_1">
	<g id="line2d_18_1_">
		<path class="st15" d="M419.2,370.8h16.1"/>
	</g>
	<g id="line2d_19">
	</g>
	<g id="line2d_20">
		<path class="st16" d="M419.2,388.4h16.1"/>
	</g>
	<g id="line2d_21">
	</g>
</g>
<text transform="matrix(1 0 0 1 441.212 375.3615)"><tspan x="0" y="0" class="st12 st17">National Politicans</tspan><tspan x="0" y="16.8" class="st12 st17">Regional/Local Politicians</tspan></text>
</svg>
