<?xml version="1.0" encoding="utf-8"?>
<!-- Generator: Adobe Illustrator 21.1.0, SVG Export Plug-In . SVG Version: 6.00 Build 0)  -->
<svg version="1.1" xmlns="http://www.w3.org/2000/svg" xmlns:xlink="http://www.w3.org/1999/xlink" x="0px" y="0px"
	 viewBox="0 0 1558.3 1194.3" style="enable-background:new 0 0 1558.3 1194.3;" xml:space="preserve">
<style type="text/css">
	.st0{fill:none;}
	.st1{fill:#20AF8D;}
	.st2{stroke:#000000;stroke-width:0.8;stroke-linejoin:round;}
	.st3{fill:none;stroke:#000000;stroke-width:0.8;stroke-linecap:square;}
	.st4{font-family:'Optima-Bold';}
	.st5{font-size:18px;}
	.st6{font-family:'Optima-Regular';}
	.st7{font-size:11px;}
	.st8{letter-spacing:26;}
	.st9{letter-spacing:32;}
	.st10{letter-spacing:8;}
	.st11{letter-spacing:28;}
	.st12{letter-spacing:7;}
	.st13{letter-spacing:31;}
	.st14{letter-spacing:10;}
	.st15{clip-path:url(#SVGID_2_);fill:#1F77B4;}
	.st16{clip-path:url(#SVGID_4_);fill:#1F77B4;}
	.st17{clip-path:url(#SVGID_6_);fill:#1F77B4;}
	.st18{clip-path:url(#SVGID_8_);fill:#1F77B4;}
	.st19{clip-path:url(#SVGID_10_);fill:#1F77B4;}
	.st20{clip-path:url(#SVGID_12_);fill:#1F77B4;}
	.st21{clip-path:url(#SVGID_14_);fill:#1F77B4;}
	.st22{clip-path:url(#SVGID_16_);fill:#1F77B4;}
	.st23{clip-path:url(#SVGID_18_);fill:#1F77B4;}
	.st24{clip-path:url(#SVGID_20_);fill:#1F77B4;}
	.st25{clip-path:url(#SVGID_22_);fill:#1F77B4;}
	.st26{clip-path:url(#SVGID_24_);fill:#1F77B4;}
	.st27{clip-path:url(#SVGID_30_);fill:#1F77B4;}
	.st28{fill:#1F77B4;stroke:#1F77B4;stroke-width:14;}
	.st29{fill:#1F77B4;}
	.st30{stroke:#0A0A0A;}
</style>
<g id="Layer_1">
	<g id="figure_1">
		<g id="axes_1">
			<g id="patch_3">
				<path class="st0" d="M215.6,62.7c-0.6,1.6-1.9,2.9-4,3.1v442.4h782.3V62.7H215.6z"/>
				<path class="st1" d="M211.6,502.4h62.1v-11.7h-62.1V502.4z"/>
			</g>
			<g id="patch_4">
				<path class="st0" d="M215.6,62.7c-0.6,1.6-1.9,2.9-4,3.1v442.4h782.3V62.7H215.6z"/>
				<path class="st1" d="M211.6,479h62.1v-11.7h-62.1V479z"/>
			</g>
			<g id="patch_5">
				<path class="st0" d="M215.6,62.7c-0.6,1.6-1.9,2.9-4,3.1v442.4h782.3V62.7H215.6z"/>
				<path class="st1" d="M211.6,455.5h62.1v-11.7h-62.1V455.5z"/>
			</g>
			<g id="patch_6">
				<path class="st0" d="M215.6,62.7c-0.6,1.6-1.9,2.9-4,3.1v442.4h782.3V62.7H215.6z"/>
				<path class="st1" d="M211.6,432.1h62.1v-11.7h-62.1V432.1z"/>
			</g>
			<g id="patch_7">
				<path class="st0" d="M215.6,62.7c-0.6,1.6-1.9,2.9-4,3.1v442.4h782.3V62.7H215.6z"/>
				<path class="st1" d="M211.6,408.6h62.1v-11.7h-62.1V408.6z"/>
			</g>
			<g id="patch_8">
				<path class="st0" d="M215.6,62.7c-0.6,1.6-1.9,2.9-4,3.1v442.4h782.3V62.7H215.6z"/>
				<path class="st1" d="M211.6,385.2h62.1v-11.7h-62.1V385.2z"/>
			</g>
			<g id="patch_9">
				<path class="st0" d="M215.6,62.7c-0.6,1.6-1.9,2.9-4,3.1v442.4h782.3V62.7H215.6z"/>
				<path class="st1" d="M211.6,361.7h62.1V350h-62.1V361.7z"/>
			</g>
			<g id="patch_10">
				<path class="st0" d="M215.6,62.7c-0.6,1.6-1.9,2.9-4,3.1v442.4h782.3V62.7H215.6z"/>
				<path class="st1" d="M211.6,338.3h124.2v-11.7H211.6V338.3z"/>
			</g>
			<g id="patch_11">
				<path class="st0" d="M215.6,62.7c-0.6,1.6-1.9,2.9-4,3.1v442.4h782.3V62.7H215.6z"/>
				<path class="st1" d="M211.6,314.8h124.2v-11.7H211.6V314.8z"/>
			</g>
			<g id="patch_12">
				<path class="st0" d="M215.6,62.7c-0.6,1.6-1.9,2.9-4,3.1v442.4h782.3V62.7H215.6z"/>
				<path class="st1" d="M211.6,291.4h186.3v-11.7H211.6V291.4z"/>
			</g>
			<g id="patch_13">
				<path class="st0" d="M215.6,62.7c-0.6,1.6-1.9,2.9-4,3.1v442.4h782.3V62.7H215.6z"/>
				<path class="st1" d="M211.6,267.9h186.3v-11.7H211.6V267.9z"/>
			</g>
			<g id="patch_14">
				<path class="st0" d="M215.6,62.7c-0.6,1.6-1.9,2.9-4,3.1v442.4h782.3V62.7H215.6z"/>
				<path class="st1" d="M211.6,244.5h186.3v-11.7H211.6V244.5z"/>
			</g>
			<g id="patch_15">
				<path class="st0" d="M215.6,62.7c-0.6,1.6-1.9,2.9-4,3.1v442.4h782.3V62.7H215.6z"/>
				<path class="st1" d="M211.6,221h186.3v-11.7H211.6V221z"/>
			</g>
			<g id="patch_16">
				<path class="st0" d="M215.6,62.7c-0.6,1.6-1.9,2.9-4,3.1v442.4h782.3V62.7H215.6z"/>
				<path class="st1" d="M211.6,197.6H522v-11.7H211.6V197.6z"/>
			</g>
			<g id="patch_17">
				<path class="st0" d="M215.6,62.7c-0.6,1.6-1.9,2.9-4,3.1v442.4h782.3V62.7H215.6z"/>
				<path class="st1" d="M211.6,174.1h372.5v-11.7H211.6V174.1z"/>
			</g>
			<g id="patch_18">
				<path class="st0" d="M215.6,62.7c-0.6,1.6-1.9,2.9-4,3.1v442.4h782.3V62.7H215.6z"/>
				<path class="st1" d="M211.6,150.7h372.5v-11.7H211.6V150.7z"/>
			</g>
			<g id="patch_19">
				<path class="st0" d="M215.6,62.7c-0.6,1.6-1.9,2.9-4,3.1v442.4h782.3V62.7H215.6z"/>
				<path class="st1" d="M211.6,127.2h496.7v-11.7H211.6V127.2z"/>
			</g>
			<g id="patch_20">
				<path class="st0" d="M215.6,62.7c-0.6,1.6-1.9,2.9-4,3.1v442.4h782.3V62.7H215.6z"/>
				<path class="st1" d="M211.6,103.8h496.7V92H211.6V103.8z"/>
			</g>
			<g id="patch_21">
				<path class="st0" d="M215.6,62.7c-0.6,1.6-1.9,2.9-4,3.1v442.4h782.3V62.7H215.6z"/>
				<path class="st1" d="M211.6,80.3h745V68.6h-745V80.3z"/>
			</g>
			<g id="matplotlib.axis_1">
				<g id="xtick_1">
					<g id="line2d_1">
						<g>
							<g>
								<path id="md6a92c1701_7_" class="st2" d="M211.6,508.3"/>
							</g>
						</g>
					</g>
				</g>
				<g id="xtick_2">
					<g id="line2d_2">
						<g>
							<g>
								<path id="md6a92c1701_10_" class="st2" d="M335.8,508.3"/>
							</g>
						</g>
					</g>
				</g>
				<g id="xtick_3">
					<g id="line2d_3">
						<g>
							<g>
								<path id="md6a92c1701_8_" class="st2" d="M460,508.3"/>
							</g>
						</g>
					</g>
				</g>
				<g id="xtick_4">
					<g id="line2d_4">
						<g>
							<g>
								<path id="md6a92c1701_13_" class="st2" d="M584.1,511.9"/>
								<path id="md6a92c1701_12_" class="st2" d="M584.1,508.3"/>
							</g>
						</g>
					</g>
				</g>
				<g id="xtick_5">
					<g id="line2d_5">
						<g>
							<g>
								<path id="md6a92c1701_2_" class="st2" d="M708.3,511.9"/>
								<path id="md6a92c1701_1_" class="st2" d="M708.3,508.3"/>
							</g>
						</g>
					</g>
				</g>
				<g id="xtick_6">
					<g id="line2d_6">
						<g>
							<g>
								<path id="md6a92c1701_4_" class="st2" d="M832.5,508.3"/>
							</g>
						</g>
					</g>
				</g>
				<g id="xtick_7">
					<g id="line2d_7">
						<g>
							<g>
								<path id="md6a92c1701_3_" class="st2" d="M956.6,508.3"/>
							</g>
						</g>
					</g>
				</g>
			</g>
			<g id="matplotlib.axis_2">
				<g id="ytick_1">
					<g id="line2d_8">
						<g>
							<g>
								<path id="md3d1346f16_3_" class="st2" d="M211.6,496.6"/>
							</g>
						</g>
					</g>
				</g>
				<g id="ytick_2">
					<g id="line2d_9">
						<g>
							<g>
								<path id="md3d1346f16_2_" class="st2" d="M211.6,473.1"/>
							</g>
						</g>
					</g>
				</g>
				<g id="ytick_3">
					<g id="line2d_10">
						<g>
							<g>
								<path id="md3d1346f16_30_" class="st2" d="M208.1,449.7"/>
								<path id="md3d1346f16_29_" class="st2" d="M211.6,449.7"/>
							</g>
						</g>
					</g>
				</g>
				<g id="ytick_4">
					<g id="line2d_11">
						<g>
							<g>
								<path id="md3d1346f16_28_" class="st2" d="M208.1,426.2"/>
								<path id="md3d1346f16_10_" class="st2" d="M211.6,426.2"/>
							</g>
						</g>
					</g>
				</g>
				<g id="ytick_5">
					<g id="line2d_12">
						<g>
							<g>
								<path id="md3d1346f16_9_" class="st2" d="M208.1,402.8"/>
								<path id="md3d1346f16_8_" class="st2" d="M211.6,402.8"/>
							</g>
						</g>
					</g>
				</g>
				<g id="ytick_6">
					<g id="line2d_13">
						<g>
							<g>
								<path id="md3d1346f16_7_" class="st2" d="M208.1,379.3"/>
								<path id="md3d1346f16_6_" class="st2" d="M211.6,379.3"/>
							</g>
						</g>
					</g>
				</g>
				<g id="ytick_7">
					<g id="line2d_14">
						<g>
							<g>
								<path id="md3d1346f16_27_" class="st2" d="M211.6,355.8"/>
							</g>
						</g>
					</g>
					<g id="text_14">
						<g transform="translate(-42.28125 359.024482)scale(0.1 -0.1)">
							<g>
								<path id="DejaVuSans-61_3_" d="M1179,49.2 M1177.9,41.2"/>
							</g>
						</g>
					</g>
				</g>
				<g id="ytick_8">
					<g id="line2d_15">
						<g>
							<g>
								<path id="md3d1346f16_14_" class="st2" d="M211.6,332.4"/>
							</g>
						</g>
					</g>
				</g>
				<g id="ytick_9">
					<g id="line2d_16">
						<g>
							<g>
								<path id="md3d1346f16_13_" class="st2" d="M211.6,308.9"/>
							</g>
						</g>
					</g>
				</g>
				<g id="ytick_10">
					<g id="line2d_17">
						<g>
							<g>
								<path id="md3d1346f16_12_" class="st2" d="M211.6,285.5"/>
							</g>
						</g>
					</g>
				</g>
				<g id="ytick_11">
					<g id="line2d_18">
						<g>
							<g>
								<path id="md3d1346f16_11_" class="st2" d="M211.6,262"/>
							</g>
						</g>
					</g>
				</g>
				<g id="ytick_12">
					<g id="line2d_19">
						<g>
							<g>
								<path id="md3d1346f16_26_" class="st2" d="M211.6,238.6"/>
							</g>
						</g>
					</g>
				</g>
				<g id="ytick_13">
					<g id="line2d_20">
						<g>
							<g>
								<path id="md3d1346f16_25_" class="st2" d="M211.6,215.1"/>
							</g>
						</g>
					</g>
				</g>
				<g id="ytick_14">
					<g id="line2d_21">
						<g>
							<g>
								<path id="md3d1346f16_16_" class="st2" d="M211.6,191.7"/>
							</g>
						</g>
					</g>
				</g>
				<g id="ytick_15">
					<g id="line2d_22">
						<g>
							<g>
								<path id="md3d1346f16_15_" class="st2" d="M211.6,168.2"/>
							</g>
						</g>
					</g>
				</g>
				<g id="ytick_16">
					<g id="line2d_23">
						<g>
							<g>
								<path id="md3d1346f16_24_" class="st2" d="M208.1,144.8"/>
								<path id="md3d1346f16_23_" class="st2" d="M211.6,144.8"/>
							</g>
						</g>
					</g>
				</g>
				<g id="ytick_17">
					<g id="line2d_24">
						<g>
							<g>
								<path id="md3d1346f16_18_" class="st2" d="M208.1,121.3"/>
								<path id="md3d1346f16_17_" class="st2" d="M211.6,121.3"/>
							</g>
						</g>
					</g>
				</g>
				<g id="ytick_18">
					<g id="line2d_25">
						<g>
							<g>
								<path id="md3d1346f16_22_" class="st2" d="M208.1,97.9"/>
								<path id="md3d1346f16_21_" class="st2" d="M211.6,97.9"/>
							</g>
						</g>
					</g>
				</g>
				<g id="ytick_19">
					<g id="line2d_26">
						<g>
							<g>
								<path id="md3d1346f16_20_" class="st2" d="M208.1,74.4"/>
								<path id="md3d1346f16_19_" class="st2" d="M211.6,74.4"/>
							</g>
						</g>
					</g>
				</g>
			</g>
			<g id="patch_22">
				<path class="st3" d="M211.6,508.3c-0.2-147.2-0.2-293.7,0-441.5"/>
			</g>
			<g id="patch_23">
				<path class="st3" d="M993.9,62.7"/>
				<path class="st3" d="M993.9,508.3"/>
			</g>
			<g id="patch_24">
				<path class="st3" d="M211.6,508.3h782.3"/>
			</g>
			<g id="patch_25">
				<path class="st3" d="M993.9,62.7"/>
			</g>
		</g>
	</g>
	<text transform="matrix(1 0 0 1 366.8353 42.9099)" class="st4 st5">OPEN CYBERSECURITY PRIORITY ITEMS - BY DEPARTMENT</text>
	<text transform="matrix(1 0 0 1 366.8351 668.0826)" class="st4 st5">OPEN GOVERNMENT OPERATIONS PRIORITY ITEMS - BY DEPARTMENT</text>
	<text transform="matrix(1 0 0 1 169.38 78.5077)"><tspan x="0" y="0" class="st6 st7">Defense</tspan><tspan x="-72.7" y="26.4" class="st6 st7">Personnel Management</tspan><tspan x="9.8" y="52.8" class="st6 st7">NASA</tspan><tspan x="19.6" y="79.2" class="st6 st7">EPA</tspan><tspan x="-1.8" y="105.6" class="st6 st7">Treasury</tspan><tspan x="-4.9" y="132" class="st6 st7">President</tspan><tspan x="-30" y="158.4" class="st6 st7">Transportation</tspan><tspan x="-31.2" y="184.8" class="st6 st7">Small Business</tspan><tspan x="12.8" y="211.2" class="st6 st7">HUD</tspan><tspan x="-13.4" y="237.6" class="st6 st7">Commerce</tspan><tspan x="23.8" y="264" class="st6 st7">VA </tspan><tspan x="-78.8" y="290.4" class="st6 st7">General Services Admin.</tspan><tspan x="6.7" y="316.8" class="st6 st7">Energy</tspan><tspan x="-8.6" y="343.2" class="st6 st7">Education</tspan><tspan x="0.6" y="369.6" class="st6 st7">Nuclear</tspan><tspan x="15.9" y="396" class="st6 st7">State</tspan><tspan x="-14.1" y="422.4" class="st6 st7">Agriculture</tspan></text>
	<text transform="matrix(1 0 0 1 212.6543 534.6623)"><tspan x="0" y="0" class="st6 st7">0</tspan><tspan x="6.1" y="0" class="st6 st7 st8">	</tspan><tspan x="36" y="0" class="st6 st7 st9">		</tspan><tspan x="108" y="0" class="st6 st7">      2</tspan><tspan x="132.5" y="0" class="st6 st7 st10">	</tspan><tspan x="144" y="0" class="st6 st7 st9">	</tspan><tspan x="180" y="0" class="st6 st7">                      4 </tspan><tspan x="256.5" y="0" class="st6 st7 st11">	</tspan><tspan x="288" y="0" class="st6 st7 st9">	</tspan><tspan x="324" y="0" class="st6 st7">                 6 </tspan><tspan x="385.2" y="0" class="st6 st7 st12">	</tspan><tspan x="396" y="0" class="st6 st7 st9">	</tspan><tspan x="432" y="0" class="st6 st7">                     8 </tspan><tspan x="505.4" y="0" class="st6 st7 st13">	</tspan><tspan x="540" y="0" class="st6 st7 st9">	</tspan><tspan x="576" y="0" class="st6 st7">              10 </tspan><tspan x="634.1" y="0" class="st6 st7 st14">	</tspan><tspan x="648" y="0" class="st6 st7 st9">	</tspan><tspan x="684" y="0" class="st6 st7">                   12</tspan></text>
	<text transform="matrix(1 0 0 1 197.72 1156.718)"><tspan x="0" y="0" class="st6 st7">0</tspan><tspan x="6.1" y="0" class="st6 st7 st8">	</tspan><tspan x="36" y="0" class="st6 st7 st9">		</tspan><tspan x="108" y="0" class="st6 st7">      2</tspan><tspan x="132.5" y="0" class="st6 st7 st10">	</tspan><tspan x="144" y="0" class="st6 st7 st9">	</tspan><tspan x="180" y="0" class="st6 st7">                      4 </tspan><tspan x="256.5" y="0" class="st6 st7 st11">	</tspan><tspan x="288" y="0" class="st6 st7 st9">	</tspan><tspan x="324" y="0" class="st6 st7">                 6 </tspan><tspan x="385.2" y="0" class="st6 st7 st12">	</tspan><tspan x="396" y="0" class="st6 st7 st9">	</tspan><tspan x="432" y="0" class="st6 st7">                     8 </tspan><tspan x="505.4" y="0" class="st6 st7 st13">	</tspan><tspan x="540" y="0" class="st6 st7 st9">	</tspan><tspan x="576" y="0" class="st6 st7">              10 </tspan><tspan x="634.1" y="0" class="st6 st7 st14">	</tspan><tspan x="648" y="0" class="st6 st7 st9">	</tspan><tspan x="684" y="0" class="st6 st7">                   12 </tspan><tspan x="757.4" y="0" class="st6 st7 st13">	</tspan><tspan x="792" y="0" class="st6 st7 st9">	</tspan><tspan x="828" y="0" class="st6 st7">                   14 </tspan><tspan x="901.4" y="0" class="st6 st7 st13">	</tspan><tspan x="936" y="0" class="st6 st7 st9">	</tspan><tspan x="972" y="0" class="st6 st7">                   16 </tspan><tspan x="1045.4" y="0" class="st6 st7 st13">	</tspan><tspan x="1080" y="0" class="st6 st7 st9">	</tspan><tspan x="1116" y="0" class="st6 st7">                   18 </tspan><tspan x="1189.4" y="0" class="st6 st7 st13">	</tspan><tspan x="1224" y="0" class="st6 st7 st9">	</tspan><tspan x="1260" y="0" class="st6 st7">                   20</tspan></text>
	<g id="figure_1_1_">
		<g id="axes_1_1_">
			<g id="patch_3_1_">
				<g>
					<defs>
						<rect id="SVGID_1_" x="196.1" y="703.4" width="781.2" height="434.9"/>
					</defs>
					<clipPath id="SVGID_2_">
						<use xlink:href="#SVGID_1_"  style="overflow:visible;"/>
					</clipPath>
					<path class="st15" d="M198.4,1132.6h37.2v-11.4h-37.2V1132.6z"/>
				</g>
			</g>
			<g id="patch_4_1_">
				<g>
					<defs>
						<rect id="SVGID_3_" x="196.1" y="703.4" width="781.2" height="434.9"/>
					</defs>
					<clipPath id="SVGID_4_">
						<use xlink:href="#SVGID_3_"  style="overflow:visible;"/>
					</clipPath>
					<path class="st16" d="M198.5,1109.7h37.2v-11.4h-37.2V1109.7z"/>
				</g>
			</g>
			<g id="patch_5_1_">
				<g>
					<defs>
						<rect id="SVGID_5_" x="196.1" y="703.4" width="781.2" height="434.9"/>
					</defs>
					<clipPath id="SVGID_6_">
						<use xlink:href="#SVGID_5_"  style="overflow:visible;"/>
					</clipPath>
					<path class="st17" d="M198.5,1086.8h37.2v-11.4h-37.2V1086.8z"/>
				</g>
			</g>
			<g id="patch_6_1_">
				<g>
					<defs>
						<rect id="SVGID_7_" x="196.1" y="703.4" width="781.2" height="434.9"/>
					</defs>
					<clipPath id="SVGID_8_">
						<use xlink:href="#SVGID_7_"  style="overflow:visible;"/>
					</clipPath>
					<path class="st18" d="M199,1063.9h37.2v-11.4H199V1063.9z"/>
				</g>
			</g>
			<g id="patch_7_1_">
				<g>
					<defs>
						<rect id="SVGID_9_" x="196.1" y="703.4" width="781.2" height="434.9"/>
					</defs>
					<clipPath id="SVGID_10_">
						<use xlink:href="#SVGID_9_"  style="overflow:visible;"/>
					</clipPath>
					<path class="st19" d="M198.9,1041h37.2v-11.4h-37.2V1041z"/>
				</g>
			</g>
			<g id="patch_8_1_">
				<g>
					<defs>
						<rect id="SVGID_11_" x="196.1" y="703.4" width="781.2" height="434.9"/>
					</defs>
					<clipPath id="SVGID_12_">
						<use xlink:href="#SVGID_11_"  style="overflow:visible;"/>
					</clipPath>
					<path class="st20" d="M199.1,1018.1h74.4v-11.4h-74.4V1018.1z"/>
				</g>
			</g>
			<g id="patch_9_1_">
				<g>
					<defs>
						<rect id="SVGID_13_" x="196.1" y="703.4" width="781.2" height="434.9"/>
					</defs>
					<clipPath id="SVGID_14_">
						<use xlink:href="#SVGID_13_"  style="overflow:visible;"/>
					</clipPath>
					<path class="st21" d="M199.2,995.2h74.4v-11.4h-74.4V995.2z"/>
				</g>
			</g>
			<g id="patch_10_1_">
				<g>
					<defs>
						<rect id="SVGID_15_" x="196.1" y="703.4" width="781.2" height="434.9"/>
					</defs>
					<clipPath id="SVGID_16_">
						<use xlink:href="#SVGID_15_"  style="overflow:visible;"/>
					</clipPath>
					<path class="st22" d="M199.4,972.3H311v-11.4H199.4V972.3z"/>
				</g>
			</g>
			<g id="patch_11_1_">
				<g>
					<defs>
						<rect id="SVGID_17_" x="196.1" y="703.4" width="781.2" height="434.9"/>
					</defs>
					<clipPath id="SVGID_18_">
						<use xlink:href="#SVGID_17_"  style="overflow:visible;"/>
					</clipPath>
					<path class="st23" d="M199.4,949.4H311V938H199.4V949.4z"/>
				</g>
			</g>
			<g id="patch_12_1_">
				<g>
					<defs>
						<rect id="SVGID_19_" x="196.1" y="703.4" width="781.2" height="434.9"/>
					</defs>
					<clipPath id="SVGID_20_">
						<use xlink:href="#SVGID_19_"  style="overflow:visible;"/>
					</clipPath>
					<path class="st24" d="M199.6,926.4h186V915h-186V926.4z"/>
				</g>
			</g>
			<g id="patch_13_1_">
				<g>
					<defs>
						<rect id="SVGID_21_" x="196.1" y="703.4" width="781.2" height="434.9"/>
					</defs>
					<clipPath id="SVGID_22_">
						<use xlink:href="#SVGID_21_"  style="overflow:visible;"/>
					</clipPath>
					<path class="st25" d="M199.9,903.7h223.2v-11.4H199.9V903.7z"/>
				</g>
			</g>
			<g id="patch_14_1_">
				<g>
					<defs>
						<rect id="SVGID_23_" x="196.1" y="703.4" width="781.2" height="434.9"/>
					</defs>
					<clipPath id="SVGID_24_">
						<use xlink:href="#SVGID_23_"  style="overflow:visible;"/>
					</clipPath>
					<path class="st26" d="M201.7,880.8h219.4c1.1,0,1.9-0.9,1.9-1.9v-7.6c0-1.1-0.9-1.9-1.9-1.9H201.7c-1.1,0-1.9,0.9-1.9,1.9v7.6
						C199.8,879.9,200.7,880.8,201.7,880.8z"/>
				</g>
			</g>
			<g id="patch_15_1_">
				<g>
					<defs>
						<rect id="SVGID_25_" x="196.1" y="703.4" width="781.2" height="434.9"/>
					</defs>
					<clipPath id="SVGID_26_">
						<use xlink:href="#SVGID_25_"  style="overflow:visible;"/>
					</clipPath>
				</g>
			</g>
			<g id="patch_16_1_">
				<g>
					<defs>
						<rect id="SVGID_27_" x="196.1" y="703.4" width="781.2" height="434.9"/>
					</defs>
					<clipPath id="SVGID_28_">
						<use xlink:href="#SVGID_27_"  style="overflow:visible;"/>
					</clipPath>
				</g>
			</g>
			<g id="patch_17_1_">
				<g>
					<defs>
						<polygon id="SVGID_29_" points="200.7,702.2 977.3,703.4 977.3,1138.3 200.7,1137.1 						"/>
					</defs>
					<clipPath id="SVGID_30_">
						<use xlink:href="#SVGID_29_"  style="overflow:visible;"/>
					</clipPath>
					<path class="st27" d="M196.9,812.1h334.8v-11.4H196.9V812.1z"/>
				</g>
			</g>
			<g id="patch_19_1_">
				<g>
					<defs>
						<rect id="SVGID_31_" x="200.7" y="703.3" width="776.6" height="434.9"/>
					</defs>
					<clipPath id="SVGID_32_">
						<use xlink:href="#SVGID_31_"  style="overflow:visible;"/>
					</clipPath>
				</g>
			</g>
			<g id="patch_20_1_">
				<g>
					<defs>
						<rect id="SVGID_33_" x="197.2" y="703.4" width="780" height="434.9"/>
					</defs>
					<clipPath id="SVGID_34_">
						<use xlink:href="#SVGID_33_"  style="overflow:visible;"/>
					</clipPath>
				</g>
			</g>
			<g id="patch_21_1_">
				<g>
					<defs>
						<rect id="SVGID_35_" x="199.6" y="703.2" width="777.6" height="434.9"/>
					</defs>
					<clipPath id="SVGID_36_">
						<use xlink:href="#SVGID_35_"  style="overflow:visible;"/>
					</clipPath>
				</g>
			</g>
			<g id="matplotlib.axis_1_1_">
				<g id="xtick_1_1_">
					<g id="line2d_1_1_">
						<g>
							<g>
								<path id="mf90b18a29d_9_" class="st2" d="M196.1,1138.3"/>
							</g>
						</g>
					</g>
				</g>
				<g id="xtick_2_1_">
					<g id="line2d_2_1_">
						<g>
							<g>
								<path id="mf90b18a29d_10_" class="st2" d="M289.1,1138.3"/>
							</g>
						</g>
					</g>
				</g>
				<g id="xtick_3_1_">
					<g id="line2d_3_1_">
						<g>
							<g>
								<path id="mf90b18a29d_1_" class="st2" d="M382.1,1138.3"/>
							</g>
						</g>
					</g>
				</g>
				<g id="xtick_4_1_">
					<g id="line2d_4_1_">
						<g>
							<g>
								<path id="mf90b18a29d_2_" class="st2" d="M475.1,1138.3"/>
							</g>
						</g>
					</g>
					<g id="text_4">
						<g transform="translate(397.048437 518.598438)scale(0.1 -0.1)">
							<g>
								<path id="DejaVuSans-35_2_" d="M822.9-6344.2"/>
							</g>
						</g>
					</g>
				</g>
				<g id="xtick_5_1_">
					<g id="line2d_5_1_">
						<g>
							<g>
								<path id="mf90b18a29d_3_" class="st2" d="M568.1,1138.3"/>
							</g>
						</g>
					</g>
				</g>
				<g id="xtick_6_1_">
					<g id="line2d_6_1_">
						<g>
							<g>
								<path id="mf90b18a29d_11_" class="st2" d="M661.1,1138.3"/>
							</g>
						</g>
					</g>
					<g id="text_6">
						<g transform="translate(579.867188 518.598438)scale(0.1 -0.1)">
							<g>
								<path id="DejaVuSans-31_4_" d="M713-6342.8"/>
							</g>
						</g>
					</g>
				</g>
				<g id="xtick_7_1_">
					<g id="line2d_7_1_">
						<g>
							<g>
								<path id="mf90b18a29d_4_" class="st2" d="M754.1,1138.3"/>
							</g>
						</g>
					</g>
				</g>
				<g id="xtick_8">
					<g id="line2d_8_1_">
						<g>
							<g>
								<path id="mf90b18a29d_6_" class="st2" d="M847.1,1138.3"/>
							</g>
						</g>
					</g>
					<g id="text_8">
						<g transform="translate(765.867188 518.598438)scale(0.1 -0.1)">
							<g>
								<path id="DejaVuSans-31_2_" d="M713-6342.8v8.3"/>
								<path id="DejaVuSans-31_1_" d="M711.6-6282.4v9"/>
							</g>
						</g>
					</g>
				</g>
				<g id="xtick_9">
					<g id="line2d_9_1_">
						<g>
							<g>
								<path id="mf90b18a29d_5_" class="st2" d="M940.1,1138.3"/>
							</g>
						</g>
					</g>
				</g>
			</g>
			<g id="matplotlib.axis_2_1_">
				<g id="ytick_1_1_">
					<g id="line2d_10_1_">
						<g>
							<g>
								<path id="med2c85474e_21_" class="st2" d="M196.1,1126.8"/>
							</g>
						</g>
					</g>
				</g>
				<g id="ytick_2_1_">
					<g id="line2d_11_1_">
						<g>
							<g>
								<path id="med2c85474e_20_" class="st2" d="M196.1,1103.9"/>
							</g>
						</g>
					</g>
				</g>
				<g id="ytick_3_1_">
					<g id="line2d_12_1_">
						<g>
							<g>
								<path id="med2c85474e_19_" class="st2" d="M196.1,1081.1"/>
							</g>
						</g>
					</g>
				</g>
				<g id="ytick_4_1_">
					<g id="line2d_13_1_">
						<g>
							<g>
								<path id="med2c85474e_22_" class="st2" d="M196.1,1058.2"/>
							</g>
						</g>
					</g>
				</g>
				<g id="ytick_5_1_">
					<g id="line2d_14_1_">
						<g>
							<g>
								<path id="med2c85474e_2_" class="st2" d="M196.1,1035.3"/>
							</g>
						</g>
					</g>
				</g>
				<g id="ytick_6_1_">
					<g id="line2d_15_1_">
						<g>
							<g>
								<path id="med2c85474e_1_" class="st2" d="M196.1,1012.4"/>
							</g>
						</g>
					</g>
				</g>
				<g id="ytick_7_1_">
					<g id="line2d_16_1_">
						<g>
							<g>
								<path id="med2c85474e_5_" class="st2" d="M196.1,989.5"/>
							</g>
						</g>
					</g>
				</g>
				<g id="ytick_8_1_">
					<g id="line2d_17_1_">
						<g>
							<g>
								<path id="med2c85474e_4_" class="st2" d="M196.1,966.6"/>
							</g>
						</g>
					</g>
				</g>
				<g id="ytick_9_1_">
					<g id="line2d_18_1_">
						<g>
							<g>
								<path id="med2c85474e_3_" class="st2" d="M196.1,943.7"/>
							</g>
						</g>
					</g>
				</g>
				<g id="ytick_10_1_">
					<g id="line2d_19_1_">
						<g>
							<g>
								<path id="med2c85474e_8_" class="st2" d="M196.1,920.8"/>
							</g>
						</g>
					</g>
				</g>
				<g id="ytick_11_1_">
					<g id="line2d_20_1_">
						<g>
							<g>
								<path id="med2c85474e_7_" class="st2" d="M196.1,897.9"/>
							</g>
						</g>
					</g>
				</g>
				<g id="ytick_12_1_">
					<g id="line2d_21_1_">
						<g>
							<g>
								<path id="med2c85474e_6_" class="st2" d="M196.1,875.1"/>
							</g>
						</g>
					</g>
				</g>
				<g id="ytick_13_1_">
					<g id="line2d_22_1_">
						<g>
							<g>
								<path id="med2c85474e_23_" class="st2" d="M196.1,852.2"/>
							</g>
						</g>
					</g>
				</g>
				<g id="ytick_14_1_">
					<g id="line2d_23_1_">
						<g>
							<g>
								<path id="med2c85474e_11_" class="st2" d="M196.1,829.3"/>
							</g>
						</g>
					</g>
				</g>
				<g id="ytick_15_1_">
					<g id="line2d_24_1_">
						<g>
							<g>
								<path id="med2c85474e_10_" class="st2" d="M196.1,806.4"/>
							</g>
						</g>
					</g>
				</g>
				<g id="ytick_16_1_">
					<g id="line2d_25_1_">
						<g>
							<g>
								<path id="med2c85474e_9_" class="st2" d="M196.1,783.5"/>
							</g>
						</g>
					</g>
				</g>
				<g id="ytick_17_1_">
					<g id="line2d_26_1_">
						<g>
							<g>
								<path id="med2c85474e_14_" class="st2" d="M196.1,760.6"/>
							</g>
						</g>
					</g>
				</g>
				<g id="ytick_18_1_">
					<g id="line2d_27">
						<g>
							<g>
								<path id="med2c85474e_13_" class="st2" d="M196.1,737.7"/>
							</g>
						</g>
					</g>
				</g>
				<g id="ytick_19_1_">
					<g id="line2d_28">
						<g>
							<g>
								<path id="med2c85474e_12_" class="st2" d="M196.1,714.8"/>
							</g>
						</g>
					</g>
				</g>
			</g>
			<g id="patch_22_1_">
				<path class="st3" d="M198.5,1138.8l2.2-435.1"/>
			</g>
			<g id="patch_23_1_">
				<path class="st3" d="M977.3,703.4"/>
				<path class="st3" d="M977.3,1138.3"/>
			</g>
			<g id="patch_24_1_">
				<path class="st3" d="M198.6,1138.8h781.2"/>
			</g>
			<g id="patch_25_1_">
				<path class="st3" d="M977.3,703.4"/>
				<path class="st3" d="M191.4,703.4"/>
			</g>
			<g id="text_30">
				<g transform="translate(384.195 63.12)scale(0.12 -0.12)">
					<g>
						<path id="DejaVuSans-70_1_" d="M680.7-5306.5h-9"/>
					</g>
					<g>
						<path id="DejaVuSans-70_2_" d="M1636.7-5306.5h-9"/>
					</g>
					<g>
						<path id="DejaVuSans-79_1_" d="M2444.6-5303.5c-2.4-2-5.6-3-9.7-3h-7.2v7.5h5.3"/>
					</g>
				</g>
			</g>
		</g>
	</g>
	<text transform="matrix(1 0 0 1 143.8537 717.4302)"><tspan x="0" y="0" class="st6 st7">President</tspan><tspan x="-8.5" y="26.4" class="st6 st7">Commerce</tspan><tspan x="4.9" y="52.8" class="st6 st7">Defense</tspan><tspan x="-67.8" y="79.2" class="st6 st7">Personnel Management</tspan><tspan x="20.8" y="105.6" class="st6 st7">State</tspan><tspan x="12.8" y="132" class="st6 st7">Justice</tspan><tspan x="-74" y="158.4" class="st6 st7">General Services Admin.</tspan><tspan x="20.8" y="184.8" class="st6 st7">HHS</tspan><tspan x="14.7" y="211.2" class="st6 st7">NASA</tspan><tspan x="3.1" y="237.6" class="st6 st7">Treasury</tspan><tspan x="11.6" y="264" class="st6 st7">Energy </tspan><tspan x="-26.3" y="290.4" class="st6 st7">Social Security</tspan><tspan x="9.2" y="316.8" class="st6 st7">Interior</tspan><tspan x="28.7" y="343.2" class="st6 st7">VA</tspan><tspan x="-94.2" y="369.6" class="st6 st7">National Science Foundation</tspan><tspan x="5.5" y="396" class="st6 st7">Nuclear</tspan><tspan x="-9.2" y="422.4" class="st6 st7">Agriculture</tspan></text>
	<polyline class="st28" points="767.6,714.5 1528.1,714.5 727.4,714.5 718.5,714.5 	"/>
	<polyline class="st28" points="722.8,714.5 639.2,714.5 605.8,714.5 503.8,714.5 415.7,714.5 308.7,714.9 226.4,714.5 212.9,714.5 
		199.7,714.7 	"/>
	<line class="st28" x1="200.1" y1="737.1" x2="1286.4" y2="736.9"/>
	<line class="st28" x1="200.3" y1="760.6" x2="1147.2" y2="760.6"/>
	<line class="st28" x1="200.4" y1="783.3" x2="816.4" y2="783.3"/>
	<line class="st28" x1="200.1" y1="806.2" x2="816" y2="806.2"/>
	<line class="st28" x1="200.1" y1="829.3" x2="816" y2="829.3"/>
	<line class="st28" x1="198.6" y1="851.6" x2="496.9" y2="851.6"/>
	<line class="st29" x1="198.2" y1="875.1" x2="205.2" y2="875.1"/>
	<line class="st29" x1="200.8" y1="875.1" x2="193.7" y2="875.1"/>
	<polyline class="st30" points="975.4,1138.3 1186,1138.3 1264.2,1138.3 1518.5,1138.3 	"/>
</g>
<g id="Layer_2">
</g>
</svg>
